<?xml version="1.0" standalone="no"?>
<!DOCTYPE svg PUBLIC "-//W3C//DTD SVG 20010904//EN"
 "http://www.w3.org/TR/2001/REC-SVG-20010904/DTD/svg10.dtd">
<svg version="1.0" xmlns="http://www.w3.org/2000/svg"
 width="1805.000000pt" height="327.000000pt" viewBox="0 0 1805.000000 327.000000"
 preserveAspectRatio="xMidYMid meet">

<g transform="translate(0.000000,327.000000) scale(0.100000,-0.100000)"
fill="#000000" stroke="none">
<path d="M890 2689 c-333 -193 -615 -356 -627 -362 l-23 -10 0 -732 0 -732
303 -178 c699 -412 947 -555 961 -555 14 0 596 334 1076 616 l185 109 3 735 2
735 -282 164 c-156 91 -375 218 -488 284 -113 65 -266 155 -340 198 -75 43
-142 79 -150 79 -8 0 -287 -158 -620 -351z m600 -38 c0 -121 -4 -192 -10 -196
-6 -4 -21 -23 -34 -44 -20 -31 -71 -64 -312 -201 -369 -209 -340 -205 -552
-81 -81 48 -147 91 -147 96 0 6 30 27 65 48 502 292 977 565 983 566 4 1 7
-84 7 -188z m517 -83 c258 -149 493 -285 523 -303 30 -17 55 -36 54 -41 0 -5
-68 -48 -150 -96 -218 -127 -188 -132 -552 76 -254 146 -291 170 -320 211
l-32 46 0 189 c0 105 2 190 5 190 2 0 215 -122 472 -272z m-528 -242 c8 -9 11
-110 9 -352 l-3 -339 -25 0 c-24 0 -557 301 -593 335 -17 15 -17 19 -3 33 26
26 572 336 592 337 6 0 17 -6 23 -14z m204 -48 c206 -114 472 -270 479 -282 4
-6 0 -18 -10 -28 -34 -32 -592 -340 -607 -334 -13 5 -15 51 -15 340 0 184 3
341 6 350 10 26 29 20 147 -46z m-1128 -179 c162 -93 165 -96 165 -119 0 -9 9
-29 20 -43 19 -24 20 -40 20 -370 0 -331 -1 -345 -20 -362 -11 -10 -20 -23
-20 -30 0 -20 -36 -46 -178 -126 -108 -62 -138 -75 -145 -64 -4 8 -6 204 -3
437 2 233 5 498 5 591 1 92 4 167 9 167 4 0 70 -36 147 -81z m2065 -524 c0
-403 -3 -605 -10 -605 -15 0 -271 149 -297 173 -13 11 -23 28 -23 38 0 9 -7
22 -15 29 -13 11 -15 64 -15 364 0 234 4 356 11 363 5 5 18 25 27 44 13 26 47
51 157 115 77 45 146 83 153 83 9 1 12 -126 12 -604z m-1681 306 c303 -172
487 -282 496 -295 7 -11 5 -20 -6 -31 -9 -9 -146 -90 -305 -180 -226 -127
-293 -161 -306 -154 -17 9 -18 36 -18 353 0 188 3 346 7 349 15 16 50 4 132
-42z m1279 -300 c2 -350 0 -371 -35 -371 -13 0 -269 144 -511 288 -138 82
-147 70 203 268 198 113 298 164 315 162 l25 -3 3 -344z m-744 -67 c14 -5 16
-45 16 -348 0 -187 -4 -347 -9 -355 -6 -9 -18 -11 -32 -8 -32 8 -558 313 -584
338 -19 19 -19 19 0 38 11 11 90 59 175 107 85 48 211 120 280 160 137 79 132
77 154 68z m377 -155 c156 -88 293 -169 303 -179 10 -10 16 -24 14 -32 -3 -7
-50 -38 -104 -68 -55 -30 -189 -105 -298 -167 -110 -63 -206 -112 -215 -111
-14 3 -16 43 -19 348 -1 190 0 351 3 357 2 7 11 13 19 13 7 0 142 -72 297
-161z m600 -347 c74 -42 133 -81 133 -86 -1 -5 -237 -146 -525 -313 l-524
-303 -3 179 c-2 177 -2 180 23 217 14 20 25 42 25 48 0 6 130 85 288 176 253
145 294 166 342 170 71 7 82 3 241 -88z m-1303 -82 c233 -136 286 -170 296
-195 7 -16 20 -36 29 -44 15 -12 17 -38 17 -198 0 -167 -2 -185 -16 -179 -15
6 -403 230 -848 490 -104 61 -191 116 -193 122 -2 6 47 40 109 76 172 100 164
97 248 95 l75 -3 283 -164z"/>
<path d="M2910 1980 l0 -70 125 0 125 0 0 -355 0 -355 80 0 80 0 0 355 0 355
125 0 125 0 0 70 0 70 -330 0 -330 0 0 -70z"/>
<path d="M3730 1625 l0 -425 74 0 74 0 4 203 c4 225 13 263 67 291 16 9 50 16
75 16 37 0 48 -5 70 -31 l26 -31 0 -224 0 -224 81 0 81 0 -4 243 c-3 237 -4
243 -28 287 -61 108 -216 126 -329 39 -13 -11 -28 -19 -32 -19 -5 0 -9 68 -9
150 l0 150 -75 0 -75 0 0 -425z"/>
<path d="M5580 1625 l0 -425 80 0 80 0 0 190 0 190 175 0 175 0 0 -190 0 -190
80 0 80 0 0 425 0 425 -80 0 -80 0 0 -165 0 -165 -175 0 -175 0 0 165 0 165
-80 0 -80 0 0 -425z"/>
<path d="M10130 1980 l0 -70 125 0 125 0 0 -355 0 -355 80 0 80 0 0 355 0 355
125 0 125 0 0 70 0 70 -330 0 -330 0 0 -70z"/>
<path d="M12280 1625 l0 -425 74 0 74 0 4 203 c4 225 13 263 67 291 16 9 50
16 75 16 37 0 48 -5 70 -31 l26 -31 0 -224 0 -224 81 0 81 0 -4 243 c-3 237
-4 243 -28 287 -61 108 -216 126 -329 39 -13 -11 -28 -19 -32 -19 -5 0 -9 68
-9 150 l0 150 -75 0 -75 0 0 -425z"/>
<path d="M13420 1625 l0 -428 213 5 c188 5 219 8 271 28 149 57 228 221 212
442 -13 188 -98 318 -236 359 -19 6 -131 13 -247 16 l-213 6 0 -428z m413 271
c85 -35 122 -131 115 -301 -3 -93 -8 -120 -29 -160 -40 -81 -59 -89 -210 -93
l-129 -4 0 286 0 286 110 0 c71 0 122 -5 143 -14z"/>
<path d="M14320 1980 l0 -70 75 0 75 0 0 70 0 70 -75 0 -75 0 0 -70z"/>
<path d="M15460 1980 l0 -70 75 0 75 0 0 70 0 70 -75 0 -75 0 0 -70z"/>
<path d="M16980 1625 l0 -425 75 0 75 0 0 425 0 425 -75 0 -75 0 0 -425z"/>
<path d="M15923 1984 l-73 -46 0 -59 0 -59 -40 0 -40 0 0 -60 0 -60 40 0 40 0
0 -201 c0 -223 6 -250 62 -283 33 -20 105 -25 171 -12 40 7 44 19 31 82 -5 28
-8 29 -47 25 -64 -6 -67 4 -67 211 l0 178 55 0 55 0 0 60 0 60 -55 0 -54 0 -3
105 -3 104 -72 -45z"/>
<path d="M4673 1819 c-87 -16 -150 -69 -192 -159 -21 -46 -25 -70 -25 -145 -1
-107 13 -159 57 -217 49 -66 125 -100 225 -101 69 0 88 3 139 29 56 28 123 98
123 129 0 9 -23 16 -72 22 -72 8 -73 8 -90 -19 -22 -35 -48 -48 -95 -48 -70 0
-133 62 -133 130 0 19 6 20 201 20 l202 0 -5 78 c-6 90 -34 165 -81 210 -60
58 -166 88 -254 71z m131 -130 c32 -25 56 -69 56 -104 l0 -25 -125 0 c-136 0
-132 -2 -115 62 22 79 122 116 184 67z"/>
<path d="M7530 1821 c-44 -9 -90 -33 -114 -60 -28 -30 -36 -26 -36 19 l0 40
-70 0 -70 0 0 -310 0 -310 75 0 75 0 0 188 c0 103 5 205 10 227 13 57 58 95
113 95 87 0 96 -26 96 -317 l1 -193 75 0 75 0 0 186 c0 211 9 263 52 299 42
36 109 35 137 -1 20 -25 21 -39 21 -255 l0 -229 80 0 80 0 0 226 c0 128 -5
244 -11 268 -20 80 -86 128 -178 128 -65 1 -113 -17 -163 -60 l-35 -31 -21 28
c-36 49 -121 76 -192 62z"/>
<path d="M8513 1820 c-29 -4 -67 -16 -84 -26 -39 -23 -86 -80 -94 -116 -7 -26
-6 -26 61 -33 53 -6 69 -5 73 6 2 7 14 23 27 36 19 19 34 23 79 23 31 0 65 -5
75 -10 23 -13 48 -86 34 -100 -6 -6 -62 -22 -125 -36 -186 -41 -237 -77 -247
-173 -6 -66 2 -93 39 -135 56 -65 174 -79 267 -32 28 14 53 30 57 36 12 19 23
10 35 -25 l12 -35 73 0 74 0 -14 41 c-11 30 -15 91 -15 223 -1 213 -8 257 -45
297 -50 51 -167 76 -282 59z m177 -367 c0 -92 -48 -143 -134 -143 -54 0 -96
32 -96 73 0 36 32 58 112 77 107 26 118 25 118 -7z"/>
<path d="M9349 1821 c-36 -7 -123 -53 -134 -71 -13 -22 -25 -8 -25 30 l0 40
-70 0 -70 0 0 -310 0 -310 74 0 74 0 4 208 c3 174 6 212 21 239 35 64 131 84
184 39 l28 -24 3 -231 3 -231 80 0 79 0 0 209 c0 221 -9 301 -38 341 -40 53
-136 85 -213 71z"/>
<path d="M11043 1819 c-87 -16 -150 -69 -192 -159 -21 -46 -25 -70 -25 -145
-1 -107 13 -159 57 -217 49 -66 125 -100 225 -101 69 0 88 3 139 29 56 28 123
98 123 129 0 9 -23 16 -72 22 -72 8 -73 8 -90 -19 -22 -35 -48 -48 -95 -48
-70 0 -133 62 -133 130 0 19 6 20 201 20 l202 0 -5 78 c-6 90 -34 165 -81 210
-60 58 -166 88 -254 71z m131 -130 c32 -25 56 -69 56 -104 l0 -25 -125 0
c-136 0 -132 -2 -115 62 22 79 122 116 184 67z"/>
<path d="M11779 1820 c-100 -17 -165 -67 -208 -160 -21 -47 -25 -70 -25 -150
0 -99 11 -140 57 -208 93 -138 368 -142 459 -5 27 40 53 101 47 107 -2 3 -36
7 -75 11 l-72 7 -12 -36 c-17 -52 -52 -76 -112 -76 -43 0 -55 5 -83 33 -79 79
-69 309 16 352 36 19 109 19 135 0 12 -8 27 -28 34 -46 l13 -31 71 7 c39 4 73
9 75 11 6 6 -17 53 -46 96 -46 68 -166 106 -274 88z"/>
<path d="M14870 1820 c-49 -9 -90 -32 -126 -72 -44 -46 -62 -85 -75 -166 -26
-158 39 -313 150 -359 78 -33 194 -11 245 46 11 12 23 21 28 21 14 0 9 -118
-7 -155 -17 -42 -46 -55 -126 -55 -46 0 -63 4 -79 20 -11 11 -20 24 -20 29 0
4 -41 12 -91 17 l-90 10 6 -36 c16 -88 78 -135 199 -150 139 -17 266 13 315
76 46 58 51 106 51 451 l0 323 -70 0 -70 0 0 -40 c0 -42 -9 -50 -30 -24 -40
48 -140 78 -210 64z m175 -143 c42 -42 59 -102 53 -187 -8 -111 -58 -170 -144
-170 -77 0 -122 57 -131 168 -7 86 10 147 52 189 29 29 39 33 85 33 46 0 56
-4 85 -33z"/>
<path d="M16443 1820 c-29 -4 -67 -16 -84 -26 -39 -23 -86 -80 -94 -116 -7
-26 -6 -26 61 -33 53 -6 69 -5 73 6 2 7 14 23 27 36 19 19 34 23 79 23 31 0
65 -5 75 -10 23 -13 48 -86 34 -100 -6 -6 -62 -22 -125 -36 -186 -41 -237 -77
-247 -173 -6 -66 2 -93 39 -135 56 -65 174 -79 267 -32 28 14 53 30 57 36 12
19 23 10 35 -25 l12 -35 73 0 74 0 -14 41 c-11 30 -15 91 -15 223 -1 213 -8
257 -45 297 -50 51 -167 76 -282 59z m177 -367 c0 -92 -48 -143 -134 -143 -54
0 -96 32 -96 73 0 36 32 58 112 77 107 26 118 25 118 -7z"/>
<path d="M17502 1819 c-66 -11 -102 -30 -136 -69 -48 -58 -53 -139 -12 -203
24 -36 101 -71 226 -102 116 -29 130 -37 130 -70 0 -40 -44 -65 -115 -65 -69
0 -108 21 -129 69 l-11 26 -77 -10 -77 -10 18 -40 c23 -51 75 -103 120 -123
93 -38 250 -32 327 13 73 43 108 116 94 198 -13 75 -76 114 -257 158 -105 25
-133 41 -133 74 0 33 31 45 112 45 57 0 63 -2 95 -36 l34 -36 64 7 c36 3 65
11 65 16 0 22 -41 88 -70 112 -51 43 -170 63 -268 46z"/>
<path d="M6480 1578 c0 -225 1 -245 21 -285 55 -114 231 -131 344 -32 l35 31
0 -46 0 -46 70 0 70 0 0 310 0 310 -74 0 -74 0 -4 -212 c-2 -152 -7 -220 -16
-236 -35 -61 -138 -82 -189 -38 l-28 24 -3 231 -3 231 -75 0 -74 0 0 -242z"/>
<path d="M14320 1510 l0 -310 75 0 75 0 0 310 0 310 -75 0 -75 0 0 -310z"/>
<path d="M15460 1510 l0 -310 75 0 75 0 0 310 0 310 -75 0 -75 0 0 -310z"/>
</g>
</svg>
