<svg width="28" height="28" viewBox="0 0 28 28" fill="none" xmlns="http://www.w3.org/2000/svg">
<mask id="path-1-inside-1_301_466" fill="white">
<path d="M14.3372 5.3825C14.3369 5.47185 14.3365 5.56118 14.3361 5.65323C14.5017 5.62874 14.6671 5.60427 14.8377 5.57906C15.2342 5.52038 15.3891 5.52219 15.7823 5.6589C15.782 5.74825 15.7816 5.83758 15.7812 5.92963C15.6509 5.97379 15.5206 6.01796 15.3863 6.06345C15.272 6.19281 15.272 6.19281 15.1552 6.32481C14.7774 6.67862 14.4251 6.73497 13.937 6.86996C13.6702 7.0187 13.6702 7.0187 13.541 7.2745C13.5064 7.69745 13.5064 7.69745 13.5378 8.08666C13.4473 8.12578 13.3569 8.16482 13.2636 8.2051C12.522 8.54695 12.522 8.54695 11.9398 9.11256C11.746 9.86945 11.7301 10.6537 11.8947 11.4195C11.9459 11.7353 11.9459 11.7353 11.7637 12.1069C11.5488 12.4106 11.5488 12.4106 11.4168 12.5454C11.1297 12.5761 10.8418 12.5992 10.5538 12.6182C10.3963 12.6289 10.2388 12.6396 10.0765 12.6507C9.95458 12.6584 9.83276 12.6662 9.70715 12.6741C9.79582 12.1831 9.88458 11.6921 9.97597 11.1861C9.88915 11.1858 9.80243 11.1854 9.71298 11.1851C9.69898 11.3051 9.68498 11.4251 9.6705 11.5487C9.57677 12.0045 9.43425 12.2903 9.18127 12.672C9.07569 12.6492 8.96991 12.6265 8.86102 12.6031C8.56022 12.5298 8.56022 12.5298 8.393 12.5335C8.71733 12.8029 8.71733 12.8029 9.04828 13.0776C8.88455 13.2558 8.71908 13.4326 8.55312 13.6086C8.46125 13.7072 8.36927 13.8059 8.27468 13.9073C7.98447 14.1632 7.84087 14.2515 7.46579 14.2897C6.72573 14.1515 6.21459 13.9569 5.62842 13.4703C5.62877 13.3809 5.62912 13.2917 5.62948 13.1995C5.54271 13.1992 5.45594 13.1989 5.36654 13.1985C5.36619 13.2879 5.36584 13.3772 5.36548 13.4693C5.10517 13.4682 4.84486 13.4672 4.57667 13.4661C4.13284 12.6447 4.26953 11.8231 4.47975 10.9361C4.70487 10.1669 5.0007 9.68777 5.64506 9.21482C6.18052 9.06201 6.62404 9.28147 7.08993 9.55045C7.1608 9.46136 7.23158 9.37228 7.30469 9.28054C7.61794 9.01102 7.61794 9.01102 8.04533 8.97886C8.22422 8.99633 8.22422 8.99633 8.4068 9.01412C8.27818 8.85039 8.27818 8.85039 8.03298 8.86408C7.76339 8.86741 7.49379 8.87073 7.22409 8.87414C7.27601 8.00799 7.27601 8.00799 7.69737 7.59846C7.80344 7.52906 7.90941 7.45969 8.01869 7.38821C7.97562 7.29869 7.93265 7.20919 7.88832 7.11696C7.97562 6.9833 8.06283 6.84962 8.15286 6.71191C8.62983 6.62071 8.62983 6.62071 9.07365 6.58015C9.30932 6.95458 9.33625 7.10771 9.28346 7.56237C9.25584 7.68512 9.22823 7.80785 9.19984 7.93431C9.29998 7.96541 9.40022 7.9965 9.50347 8.02854C9.94243 8.25144 10.0569 8.42545 10.2479 8.886C10.3262 9.58185 10.3262 9.58185 10.0923 9.91541C9.75975 10.1711 9.47693 10.1962 9.06743 10.2519C8.39378 10.3259 8.39378 10.3259 7.74355 10.5005C7.62008 10.7438 7.49651 10.9872 7.3745 11.2314C7.21398 11.446 7.21398 11.446 6.72048 11.571C6.57951 11.5732 6.43854 11.5754 6.29319 11.5778C6.29271 11.7119 6.29212 11.8458 6.29164 11.9839C5.83583 12.049 5.83583 12.049 5.37078 12.1156C5.67412 12.2062 5.97746 12.2967 6.28998 12.3899C6.33266 12.5688 6.37534 12.7477 6.41939 12.9319C6.54947 12.9324 6.67965 12.933 6.81382 12.9334C6.74897 12.8663 6.74897 12.8663 6.68286 12.7976C6.62637 12.5097 6.62637 12.5097 6.68548 12.1208C6.86272 11.8648 7.05668 11.6405 7.266 11.4119C7.48922 11.1835 7.48922 11.1835 7.62864 10.8892C8.02997 10.4766 8.51141 10.4961 9.05848 10.4465C9.1664 10.433 9.27422 10.4196 9.38534 10.4057C9.9853 10.3439 9.9853 10.3439 10.2421 10.375C10.4723 10.5789 10.4723 10.5789 10.6348 10.7826C10.6138 10.6234 10.5927 10.4642 10.571 10.3001C10.509 9.7787 10.4987 9.27647 10.5114 8.75162C10.743 8.62033 10.9746 8.48904 11.2062 8.35782C11.4549 8.21265 11.4549 8.21265 11.6978 7.94411C11.6163 7.97167 11.5348 7.99932 11.4509 8.02773C11.3587 8.04412 11.2664 8.06052 11.1713 8.07739C10.9095 7.80564 10.9095 7.80564 10.895 7.31488C10.9009 7.16414 10.907 7.0134 10.9132 6.8581C10.9007 6.98525 10.9007 6.98525 10.888 7.11498C10.8765 7.22557 10.8651 7.33614 10.8533 7.45009C10.8422 7.55997 10.8311 7.66986 10.8197 7.78308C10.7769 8.07584 10.7769 8.07584 10.6444 8.34606C10.2424 8.29851 10.0132 8.2276 9.6845 7.97851C9.40265 7.57761 9.43434 7.33683 9.46701 6.85242C9.35073 6.53279 9.35073 6.53279 8.93452 6.42731C8.80726 6.38773 8.68 6.34815 8.54884 6.30736C8.71169 5.99604 8.85451 5.80458 9.17836 5.67212C9.72115 5.52697 10.2241 5.47274 10.787 5.50395C10.7866 5.59329 10.7863 5.68263 10.7859 5.77467C10.8649 5.70518 10.9437 5.63569 11.025 5.5641C11.1203 5.50026 11.2154 5.43641 11.3134 5.37064C11.4433 5.41583 11.5733 5.46101 11.7073 5.50755C11.7069 5.5969 11.7065 5.68623 11.7062 5.77828C11.793 5.77862 11.8798 5.77896 11.9691 5.77932C11.9697 5.64531 11.9702 5.51129 11.9708 5.37322C12.6386 5.03273 13.635 5.22741 14.3372 5.3825ZM12.231 6.05107C12.2306 6.18508 12.23 6.31909 12.2295 6.45716C12.0991 6.50132 11.9687 6.54548 11.8345 6.59098C11.8344 6.63565 11.8342 6.68031 11.834 6.72634C12.1809 6.77238 12.5278 6.8184 12.8852 6.86583C13.0164 6.59833 13.1477 6.33081 13.2828 6.0552C13.0955 6.09215 13.0955 6.09215 12.9046 6.12985C12.4934 6.18746 12.4934 6.18746 12.231 6.05107ZM5.77418 9.816C5.71254 9.9749 5.71254 9.9749 5.64965 10.1369C5.5086 10.4917 5.5086 10.4917 5.37607 10.7619C5.68011 10.6738 5.98416 10.5857 6.29737 10.4948C6.127 10.0716 6.127 10.0716 5.77418 9.816ZM6.95741 9.82057C7.08779 10.0918 7.08779 10.0918 7.08779 10.0918L6.95741 9.82057Z"/>
</mask>
<path d="M14.3372 5.3825C14.3369 5.47185 14.3365 5.56118 14.3361 5.65323C14.5017 5.62874 14.6671 5.60427 14.8377 5.57906C15.2342 5.52038 15.3891 5.52219 15.7823 5.6589C15.782 5.74825 15.7816 5.83758 15.7812 5.92963C15.6509 5.97379 15.5206 6.01796 15.3863 6.06345C15.272 6.19281 15.272 6.19281 15.1552 6.32481C14.7774 6.67862 14.4251 6.73497 13.937 6.86996C13.6702 7.0187 13.6702 7.0187 13.541 7.2745C13.5064 7.69745 13.5064 7.69745 13.5378 8.08666C13.4473 8.12578 13.3569 8.16482 13.2636 8.2051C12.522 8.54695 12.522 8.54695 11.9398 9.11256C11.746 9.86945 11.7301 10.6537 11.8947 11.4195C11.9459 11.7353 11.9459 11.7353 11.7637 12.1069C11.5488 12.4106 11.5488 12.4106 11.4168 12.5454C11.1297 12.5761 10.8418 12.5992 10.5538 12.6182C10.3963 12.6289 10.2388 12.6396 10.0765 12.6507C9.95458 12.6584 9.83276 12.6662 9.70715 12.6741C9.79582 12.1831 9.88458 11.6921 9.97597 11.1861C9.88915 11.1858 9.80243 11.1854 9.71298 11.1851C9.69898 11.3051 9.68498 11.4251 9.6705 11.5487C9.57677 12.0045 9.43425 12.2903 9.18127 12.672C9.07569 12.6492 8.96991 12.6265 8.86102 12.6031C8.56022 12.5298 8.56022 12.5298 8.393 12.5335C8.71733 12.8029 8.71733 12.8029 9.04828 13.0776C8.88455 13.2558 8.71908 13.4326 8.55312 13.6086C8.46125 13.7072 8.36927 13.8059 8.27468 13.9073C7.98447 14.1632 7.84087 14.2515 7.46579 14.2897C6.72573 14.1515 6.21459 13.9569 5.62842 13.4703C5.62877 13.3809 5.62912 13.2917 5.62948 13.1995C5.54271 13.1992 5.45594 13.1989 5.36654 13.1985C5.36619 13.2879 5.36584 13.3772 5.36548 13.4693C5.10517 13.4682 4.84486 13.4672 4.57667 13.4661C4.13284 12.6447 4.26953 11.8231 4.47975 10.9361C4.70487 10.1669 5.0007 9.68777 5.64506 9.21482C6.18052 9.06201 6.62404 9.28147 7.08993 9.55045C7.1608 9.46136 7.23158 9.37228 7.30469 9.28054C7.61794 9.01102 7.61794 9.01102 8.04533 8.97886C8.22422 8.99633 8.22422 8.99633 8.4068 9.01412C8.27818 8.85039 8.27818 8.85039 8.03298 8.86408C7.76339 8.86741 7.49379 8.87073 7.22409 8.87414C7.27601 8.00799 7.27601 8.00799 7.69737 7.59846C7.80344 7.52906 7.90941 7.45969 8.01869 7.38821C7.97562 7.29869 7.93265 7.20919 7.88832 7.11696C7.97562 6.9833 8.06283 6.84962 8.15286 6.71191C8.62983 6.62071 8.62983 6.62071 9.07365 6.58015C9.30932 6.95458 9.33625 7.10771 9.28346 7.56237C9.25584 7.68512 9.22823 7.80785 9.19984 7.93431C9.29998 7.96541 9.40022 7.9965 9.50347 8.02854C9.94243 8.25144 10.0569 8.42545 10.2479 8.886C10.3262 9.58185 10.3262 9.58185 10.0923 9.91541C9.75975 10.1711 9.47693 10.1962 9.06743 10.2519C8.39378 10.3259 8.39378 10.3259 7.74355 10.5005C7.62008 10.7438 7.49651 10.9872 7.3745 11.2314C7.21398 11.446 7.21398 11.446 6.72048 11.571C6.57951 11.5732 6.43854 11.5754 6.29319 11.5778C6.29271 11.7119 6.29212 11.8458 6.29164 11.9839C5.83583 12.049 5.83583 12.049 5.37078 12.1156C5.67412 12.2062 5.97746 12.2967 6.28998 12.3899C6.33266 12.5688 6.37534 12.7477 6.41939 12.9319C6.54947 12.9324 6.67965 12.933 6.81382 12.9334C6.74897 12.8663 6.74897 12.8663 6.68286 12.7976C6.62637 12.5097 6.62637 12.5097 6.68548 12.1208C6.86272 11.8648 7.05668 11.6405 7.266 11.4119C7.48922 11.1835 7.48922 11.1835 7.62864 10.8892C8.02997 10.4766 8.51141 10.4961 9.05848 10.4465C9.1664 10.433 9.27422 10.4196 9.38534 10.4057C9.9853 10.3439 9.9853 10.3439 10.2421 10.375C10.4723 10.5789 10.4723 10.5789 10.6348 10.7826C10.6138 10.6234 10.5927 10.4642 10.571 10.3001C10.509 9.7787 10.4987 9.27647 10.5114 8.75162C10.743 8.62033 10.9746 8.48904 11.2062 8.35782C11.4549 8.21265 11.4549 8.21265 11.6978 7.94411C11.6163 7.97167 11.5348 7.99932 11.4509 8.02773C11.3587 8.04412 11.2664 8.06052 11.1713 8.07739C10.9095 7.80564 10.9095 7.80564 10.895 7.31488C10.9009 7.16414 10.907 7.0134 10.9132 6.8581C10.9007 6.98525 10.9007 6.98525 10.888 7.11498C10.8765 7.22557 10.8651 7.33614 10.8533 7.45009C10.8422 7.55997 10.8311 7.66986 10.8197 7.78308C10.7769 8.07584 10.7769 8.07584 10.6444 8.34606C10.2424 8.29851 10.0132 8.2276 9.6845 7.97851C9.40265 7.57761 9.43434 7.33683 9.46701 6.85242C9.35073 6.53279 9.35073 6.53279 8.93452 6.42731C8.80726 6.38773 8.68 6.34815 8.54884 6.30736C8.71169 5.99604 8.85451 5.80458 9.17836 5.67212C9.72115 5.52697 10.2241 5.47274 10.787 5.50395C10.7866 5.59329 10.7863 5.68263 10.7859 5.77467C10.8649 5.70518 10.9437 5.63569 11.025 5.5641C11.1203 5.50026 11.2154 5.43641 11.3134 5.37064C11.4433 5.41583 11.5733 5.46101 11.7073 5.50755C11.7069 5.5969 11.7065 5.68623 11.7062 5.77828C11.793 5.77862 11.8798 5.77896 11.9691 5.77932C11.9697 5.64531 11.9702 5.51129 11.9708 5.37322C12.6386 5.03273 13.635 5.22741 14.3372 5.3825ZM12.231 6.05107C12.2306 6.18508 12.23 6.31909 12.2295 6.45716C12.0991 6.50132 11.9687 6.54548 11.8345 6.59098C11.8344 6.63565 11.8342 6.68031 11.834 6.72634C12.1809 6.77238 12.5278 6.8184 12.8852 6.86583C13.0164 6.59833 13.1477 6.33081 13.2828 6.0552C13.0955 6.09215 13.0955 6.09215 12.9046 6.12985C12.4934 6.18746 12.4934 6.18746 12.231 6.05107ZM5.77418 9.816C5.71254 9.9749 5.71254 9.9749 5.64965 10.1369C5.5086 10.4917 5.5086 10.4917 5.37607 10.7619C5.68011 10.6738 5.98416 10.5857 6.29737 10.4948C6.127 10.0716 6.127 10.0716 5.77418 9.816ZM6.95741 9.82057C7.08779 10.0918 7.08779 10.0918 7.08779 10.0918L6.95741 9.82057Z" fill="#3C5979" stroke="#3C5979" stroke-width="2" mask="url(#path-1-inside-1_301_466)"/>
<path d="M13.6636 9.66982C13.8648 9.6706 14.0661 9.67097 14.27 9.67177C14.3115 9.75806 14.3538 9.84472 14.396 9.93251L14.6362 10.4345C14.5325 10.3192 14.4535 10.2013 14.3745 10.037L13.4243 10.2616C13.4262 10.38 13.4265 10.4988 13.4282 10.62C13.4019 10.7155 13.3843 10.7831 13.3677 10.8358C13.3579 10.8666 13.3507 10.8874 13.3452 10.9013C13.3401 10.914 13.3374 10.9188 13.3374 10.9188C13.3455 10.9042 13.3675 10.8928 13.2593 10.9784C13.0823 11.0745 12.9038 11.1667 12.7231 11.2538L12.7358 11.1552L12.5708 10.9833C12.5692 10.9816 12.5675 10.9801 12.5659 10.9784C12.5293 10.4931 12.5277 10.0725 12.6187 9.66591L13.6636 9.66982ZM18.6392 11.0595C18.6367 11.0585 18.6338 11.0585 18.6313 11.0575V11.036C18.634 11.0438 18.6364 11.0517 18.6392 11.0595ZM17.3755 8.35146L17.3716 9.38759L17.5161 9.16493C17.5155 9.24007 17.5157 9.31559 17.5151 9.39247C17.5126 9.5636 17.5126 9.56448 17.5103 9.73915V9.74208C17.5094 9.85639 17.5074 9.97071 17.5063 10.0897C17.5041 10.3353 17.5006 10.5809 17.4976 10.827C17.2798 10.8177 17.0674 10.8251 16.8599 10.8475C16.8722 10.7992 16.8868 10.7496 16.8979 10.702L16.9038 10.6776L16.9067 10.6513C16.9237 10.5179 16.9419 10.3806 16.9595 10.2421L16.9585 10.2411C16.9772 10.1083 16.997 9.97434 17.0161 9.83681L17.0181 9.82411C17.0297 9.72059 17.0412 9.61521 17.0532 9.50771L16.0972 9.25575C16.0676 9.32508 16.0383 9.39244 16.0083 9.46278C15.7521 10.0282 15.5774 10.3426 15.186 10.5936C15.0498 10.6154 15.0072 10.6211 14.9683 10.621C14.9352 10.6209 14.901 10.6161 14.8032 10.5995C14.7874 10.5853 14.7712 10.5723 14.7563 10.5585L15.2173 10.0517C15.5243 9.71313 15.6957 9.52393 15.8521 9.32118C16.008 9.11883 16.1471 8.90544 16.395 8.52431C16.4803 8.39572 16.5483 8.34772 16.6177 8.31435C16.7162 8.26706 16.8315 8.2405 17.0776 8.17958L17.27 8.13173L17.3755 8.35146ZM19.8599 9.43837C19.9399 9.53968 20.0072 9.64928 20.0767 9.77431C20.0624 9.78303 20.0489 9.79316 20.0347 9.80263C20.0326 9.79831 20.031 9.79357 20.0288 9.78896L19.8599 9.43837ZM18.9067 9.13271C19.2006 9.11616 19.4139 9.13663 19.6665 9.22939C19.6897 9.25106 19.7126 9.27193 19.7339 9.29384L19.2974 9.59169C19.2477 9.62542 19.1978 9.65932 19.1479 9.69325L18.7339 9.47743C18.7765 9.35097 18.8318 9.23628 18.9067 9.13271ZM16.0259 6.59462C16.1181 6.57834 16.2324 6.57887 16.436 6.60927L16.2817 7.07802C15.9834 7.07994 15.7033 7.13484 15.4048 7.20009L14.981 7.29286L15.0132 7.72548C15.02 7.81706 15.0268 7.90706 15.0337 7.99989C15.0283 8.07474 15.0251 8.12249 15.021 8.15907C15.0196 8.17147 15.018 8.18033 15.0171 8.18642C15.0109 8.19606 15.0022 8.2072 14.9897 8.2245C14.9548 8.24951 14.9276 8.26869 14.9028 8.28114L14.5737 7.89833C14.5157 7.83077 14.4574 7.7633 14.3979 7.69423C14.36 7.6324 14.3358 7.59393 14.3188 7.56337C14.3148 7.55602 14.3114 7.55031 14.3091 7.54579C14.309 7.54165 14.3091 7.53715 14.3091 7.53212C14.3561 7.44532 14.3908 7.39817 14.4253 7.36415C14.4677 7.32231 14.527 7.28039 14.6421 7.21278C15.0358 7.14015 15.048 7.13894 15.4321 7.10243L15.8823 7.05946L15.8833 6.63661C15.9378 6.61464 15.9836 6.6021 16.0259 6.59462ZM18.3716 7.87685C18.3669 7.87656 18.3624 7.87619 18.3579 7.87587C18.3589 7.87428 18.3598 7.87258 18.3608 7.87099C18.3645 7.87279 18.368 7.87501 18.3716 7.87685ZM16.9604 7.11122C17.0268 7.11148 17.0931 7.11096 17.1606 7.11122C17.2173 7.12534 17.2733 7.14155 17.3296 7.15614C17.3389 7.20538 17.3476 7.25334 17.354 7.30165L17.1226 7.22157C17.0297 7.18931 16.9397 7.1641 16.853 7.14345L16.7886 7.11024L16.9604 7.11122ZM16.7788 7.11024L16.7896 7.13075C16.7532 7.12307 16.7176 7.11512 16.6821 7.10927L16.7788 7.11024Z" fill="#3C5979" stroke="#3C5979"/>
<path d="M16.2671 12.8647C16.693 12.6725 17.0755 12.619 17.4399 12.6625C17.806 12.7064 18.1838 12.8518 18.5942 13.103C19.1188 13.6352 19.4368 14.215 19.4595 14.9077C19.3915 15.6871 19.1805 16.2005 18.647 16.6967C18.3632 16.9258 18.1231 17.0667 17.8804 17.1508C17.6424 17.2333 17.3761 17.27 17.0288 17.2612C16.4194 17.1591 15.899 16.9031 15.5249 16.4575C15.1147 15.7805 14.9758 15.2032 15.0581 14.4184C15.2667 13.7494 15.665 13.2797 16.2671 12.8647Z" fill="#3C5979" stroke="#3C5979"/>
<path d="M10.9087 15.8758C11.1037 15.9167 11.2987 15.9568 11.4985 15.9988L10.7388 16.2312L11.3042 16.8191C11.4337 16.9536 11.5635 17.0881 11.6968 17.2264L11.7397 17.2713C11.4536 17.3306 11.1667 17.3631 10.8765 17.366L11.3794 17.1111L10.8003 16.6258C10.6897 16.5332 10.6763 16.5216 10.5874 16.4471C10.4597 16.2851 10.4083 16.1775 10.3804 16.075C10.3574 15.9905 10.3476 15.8951 10.3394 15.7557L10.9087 15.8758ZM9.31787 17.0476C9.25632 17.0091 9.20305 16.969 9.15479 16.9256C9.1474 16.9189 9.14064 16.911 9.1333 16.9041L9.23584 16.8514C9.26289 16.9162 9.2903 16.9816 9.31787 17.0476ZM13.0454 16.825C12.877 16.9037 12.7095 16.9761 12.5415 17.0389C12.5641 16.9992 12.586 16.9589 12.6089 16.9187C12.707 16.8153 12.7702 16.7851 12.8247 16.7674C12.8696 16.7528 12.9181 16.7417 12.9858 16.7332C13.0055 16.7639 13.0257 16.7942 13.0454 16.825ZM8.66943 15.8308C8.76263 15.9391 8.83631 16.0441 8.90381 16.1551C8.86124 16.1136 8.81823 16.0722 8.7749 16.0301C8.73169 15.9572 8.69772 15.8914 8.66943 15.8308ZM13.8765 11.9383C13.7557 12.114 13.6498 12.2941 13.5464 12.4822C13.462 12.6281 13.4306 12.683 13.3999 12.7293C13.3906 12.7433 13.3789 12.7557 13.3677 12.7713C13.3647 12.7717 13.3618 12.7728 13.3589 12.7732C13.3148 12.7797 13.2979 12.7801 13.2915 12.7801C13.2794 12.78 13.2688 12.7805 13.1079 12.742L12.7065 13.6394C12.7736 13.6858 12.8411 13.7323 12.9087 13.7791C12.9086 13.8187 12.9058 13.8726 12.894 14.0213V14.0242C12.8864 14.1306 12.8792 14.2377 12.8716 14.3465C12.8566 14.5173 12.8567 14.5181 12.8413 14.6922L12.8403 14.699C12.8381 14.7293 12.8357 14.7595 12.8335 14.7898L12.4897 14.4324L12.355 15.4646C12.3463 15.5312 12.3374 15.5978 12.3286 15.6658C12.3189 15.6933 12.3112 15.7134 12.3052 15.7293C12.2949 15.7354 12.2821 15.7424 12.2661 15.7517C12.2621 15.7531 12.2582 15.7544 12.2544 15.7557L12.1489 15.3865C12.1267 15.3089 12.1034 15.2315 12.0806 15.1521C12.0712 15.104 12.0665 15.0741 12.063 15.0525C12.0739 15.028 12.0898 14.9932 12.1196 14.9324L12.4712 14.2156L11.7612 14.2127C11.7636 14.0567 11.7761 13.9321 11.8042 13.8182C11.8495 13.6347 11.9419 13.4454 12.1567 13.1834C12.3907 13.0157 12.6284 12.8548 12.8696 12.701L12.9253 12.6658L12.9692 12.618C13.0912 12.4852 13.0955 12.4803 13.2114 12.3543C13.4564 12.1209 13.6706 11.9996 13.8765 11.9383ZM10.6343 14.4607C10.6455 14.6435 10.6678 14.8137 10.6997 14.9832L10.4126 15.1297C10.4692 14.8958 10.5412 14.6731 10.6343 14.4607ZM9.65186 13.6648C9.53416 13.7608 9.41362 13.8834 9.36084 13.9324L9.27979 14.0076L9.23779 14.1101C9.15556 14.3121 9.10491 14.4356 9.06494 14.5574C9.05166 14.5979 9.04061 14.6382 9.02881 14.6805C8.91304 14.7038 8.79609 14.7277 8.67725 14.7517L8.61475 14.7635C8.78561 14.3467 9.12858 14.0425 9.61865 13.6853C9.62983 13.6785 9.64086 13.6716 9.65186 13.6648ZM10.6538 13.284L10.6519 13.326C10.6504 13.3494 10.6492 13.3729 10.6479 13.3963L10.3618 13.3953C10.253 13.3949 10.1537 13.4105 10.064 13.4373C10.2703 13.3392 10.453 13.2874 10.6538 13.284Z" fill="#3C5979" stroke="#3C5979"/>
<path d="M6.09277 8.55724C6.0011 8.55782 5.91053 8.56691 5.81934 8.58458C5.85112 8.56439 5.88288 8.5427 5.91699 8.52306C5.95043 8.50835 5.98401 8.49388 6.01758 8.47911L6.09277 8.55724ZM7.31543 6.9586C7.12404 7.4171 6.87227 7.77922 6.54395 7.97716L6.54492 7.92345V7.60216C6.9162 7.2367 7.16619 6.99928 7.3584 6.84142C7.34411 6.88056 7.32958 6.91979 7.31543 6.9586Z" fill="#3C5979" stroke="#3C5979"/>
<path d="M14.9229 19.6075C15.0192 19.6737 15.127 19.717 15.2227 19.754C15.3332 19.8198 15.3978 19.8731 15.4492 19.9318C15.5109 20.0021 15.5691 20.0926 15.666 20.256L15.6699 20.2628C15.7203 20.3448 15.7706 20.4268 15.8223 20.5109C15.8338 20.5387 15.8407 20.5573 15.8457 20.5704C15.8446 20.5747 15.8433 20.5797 15.8418 20.5851C15.8409 20.5884 15.8389 20.5914 15.8379 20.5948C15.8108 20.6073 15.7883 20.6181 15.7676 20.6271C15.7555 20.6109 15.7436 20.5945 15.7314 20.5782L15.7266 20.5724C15.4516 20.2144 15.1809 19.889 14.8965 19.587C14.9054 19.5937 14.9136 19.6012 14.9229 19.6075ZM14.4629 19.1466C14.4866 19.1722 14.5103 19.198 14.5342 19.2238C14.4631 19.1566 14.3903 19.0914 14.3164 19.0265C14.3647 19.0665 14.4132 19.1067 14.4629 19.1466ZM13.4561 18.172L13.4648 18.1827C13.6861 18.4558 13.9106 18.6753 14.1475 18.882C13.8764 18.6569 13.5833 18.4451 13.2568 18.2404C13.3214 18.2157 13.3862 18.1909 13.4512 18.1661L13.4561 18.172Z" fill="#3C5979" stroke="#3C5979"/>
<path d="M20.7666 10.9571C20.7762 10.9586 20.7849 10.9606 20.793 10.962C20.7973 11.1102 20.7963 11.2366 20.7842 11.3516L20.7676 11.2696L20.5303 11.2686C20.5461 11.236 20.5634 11.2051 20.5771 11.1758L20.585 11.1602L20.5908 11.1446C20.6159 11.0799 20.6377 11.0216 20.6611 10.961C20.6664 10.9556 20.6714 10.9498 20.6768 10.9444C20.7102 10.9491 20.7401 10.9528 20.7666 10.9571Z" fill="#3C5979" stroke="#3C5979"/>
<mask id="path-8-inside-2_301_466" fill="white">
<path d="M20.2036 18.1298C20.9915 18.2479 21.4809 18.978 22.0139 19.5328C22.1901 19.7098 22.1901 19.7098 22.3698 19.8902C22.4802 20.0044 22.5904 20.1186 22.7041 20.2361C22.8057 20.3406 22.9071 20.445 23.0119 20.5527C23.2168 20.8489 23.2168 20.8489 23.1821 21.1577C23.1494 21.2343 23.1167 21.3109 23.0832 21.3898C22.2953 21.2717 21.8059 20.5416 21.2726 19.9868C21.1553 19.8687 21.0378 19.7508 20.917 19.6293C20.8066 19.5152 20.6964 19.401 20.5826 19.2835C20.481 19.179 20.3794 19.0745 20.2748 18.9669C20.07 18.6707 20.07 18.6707 20.1047 18.3619C20.1374 18.2853 20.1699 18.2087 20.2036 18.1298Z"/>
</mask>
<path d="M20.2036 18.1298C20.9915 18.2479 21.4809 18.978 22.0139 19.5328C22.1901 19.7098 22.1901 19.7098 22.3698 19.8902C22.4802 20.0044 22.5904 20.1186 22.7041 20.2361C22.8057 20.3406 22.9071 20.445 23.0119 20.5527C23.2168 20.8489 23.2168 20.8489 23.1821 21.1577C23.1494 21.2343 23.1167 21.3109 23.0832 21.3898C22.2953 21.2717 21.8059 20.5416 21.2726 19.9868C21.1553 19.8687 21.0378 19.7508 20.917 19.6293C20.8066 19.5152 20.6964 19.401 20.5826 19.2835C20.481 19.179 20.3794 19.0745 20.2748 18.9669C20.07 18.6707 20.07 18.6707 20.1047 18.3619C20.1374 18.2853 20.1699 18.2087 20.2036 18.1298Z" fill="#3C5979"/>
<path d="M20.2036 18.1298L20.3518 17.1409L19.5871 17.0262L19.2837 17.7375L20.2036 18.1298ZM22.0139 19.5328L21.2929 20.2256L21.2989 20.232L21.3051 20.2382L22.0139 19.5328ZM22.3698 19.8902L23.0886 19.1951L23.0835 19.1898L23.0784 19.1846L22.3698 19.8902ZM22.7041 20.2361L21.9856 20.9316L21.9872 20.9332L22.7041 20.2361ZM23.0119 20.5527L23.8344 19.9839L23.7869 19.9152L23.7286 19.8553L23.0119 20.5527ZM23.1821 21.1577L24.102 21.5498L24.1594 21.415L24.1758 21.2694L23.1821 21.1577ZM23.0832 21.3898L22.9349 22.3787L23.7005 22.4935L24.0034 21.7812L23.0832 21.3898ZM21.2726 19.9868L21.9936 19.2938L21.9878 19.2879L21.982 19.282L21.2726 19.9868ZM20.917 19.6293L20.198 20.3245L20.2079 20.3344L20.917 19.6293ZM20.5826 19.2835L21.3012 18.588L21.2996 18.5864L20.5826 19.2835ZM20.2748 18.9669L19.4524 19.5357L19.4998 19.6042L19.5579 19.664L20.2748 18.9669ZM20.1047 18.3619L19.1848 17.9698L19.1273 18.1046L19.111 18.2502L20.1047 18.3619ZM20.2036 18.1298L20.0553 19.1188C20.1666 19.1354 20.3068 19.199 20.5243 19.4007C20.6328 19.5013 20.7433 19.6199 20.8729 19.7642C20.9928 19.8977 21.144 20.0707 21.2929 20.2256L22.0139 19.5328L22.735 18.8399C22.6174 18.7175 22.5075 18.5911 22.3611 18.428C22.2244 18.2758 22.0633 18.1004 21.8843 17.9343C21.5268 17.6028 21.0284 17.2423 20.3518 17.1409L20.2036 18.1298ZM22.0139 19.5328L21.3051 20.2382C21.4814 20.4153 21.4814 20.4154 21.6612 20.5958L22.3698 19.8902L23.0784 19.1846C22.8988 19.0043 22.8988 19.0043 22.7227 18.8274L22.0139 19.5328ZM22.3698 19.8902L21.6509 20.5854C21.7603 20.6985 21.8718 20.814 21.9856 20.9316L22.7041 20.2361L23.4227 19.5406C23.3089 19.4231 23.2001 19.3104 23.0886 19.1951L22.3698 19.8902ZM22.7041 20.2361L21.9872 20.9332C22.0876 21.0365 22.1906 21.1426 22.2953 21.2502L23.0119 20.5527L23.7286 19.8553C23.6236 19.7475 23.5238 19.6446 23.421 19.5389L22.7041 20.2361ZM23.0119 20.5527L22.1895 21.1215C22.216 21.1599 22.2349 21.1872 22.2506 21.2105C22.2662 21.2337 22.273 21.2445 22.2754 21.2484C22.2805 21.2567 22.2481 21.2064 22.2242 21.1212C22.2121 21.0783 22.2052 21.0377 22.2019 21.0022C22.1988 20.9689 22.1993 20.9459 22.1995 20.9396C22.1997 20.9344 22.1998 20.938 22.1978 20.9587C22.1958 20.9796 22.1929 21.0052 22.1883 21.046L23.1821 21.1577L24.1758 21.2694C24.1828 21.2068 24.195 21.1048 24.1983 21.0095C24.2023 20.8961 24.1967 20.7478 24.1495 20.5797C24.1043 20.4189 24.0357 20.2938 23.9842 20.2092C23.9372 20.1318 23.879 20.0484 23.8344 19.9839L23.0119 20.5527ZM23.1821 21.1577L22.2622 20.7655C22.2295 20.8421 22.1967 20.9191 22.163 20.9984L23.0832 21.3898L24.0034 21.7812C24.0368 21.7027 24.0693 21.6265 24.102 21.5498L23.1821 21.1577ZM23.0832 21.3898L23.2314 20.4008C23.1201 20.3842 22.9799 20.3206 22.7624 20.1189C22.6539 20.0182 22.5434 19.8997 22.4137 19.7553C22.2938 19.6218 22.1425 19.4488 21.9936 19.2938L21.2726 19.9868L20.5517 20.6798C20.6693 20.8022 20.7793 20.9286 20.9257 21.0916C21.0624 21.2439 21.2234 21.4193 21.4024 21.5853C21.7599 21.9168 22.2583 22.2773 22.9349 22.3787L23.0832 21.3898ZM21.2726 19.9868L21.982 19.282C21.8646 19.1638 21.746 19.0448 21.626 18.9241L20.917 19.6293L20.2079 20.3344C20.3296 20.4568 20.446 20.5736 20.5632 20.6916L21.2726 19.9868ZM20.917 19.6293L21.6359 18.9341C21.5259 18.8204 21.4151 18.7058 21.3012 18.588L20.5826 19.2835L19.8641 19.979C19.9776 20.0963 20.0874 20.2099 20.1981 20.3244L20.917 19.6293ZM20.5826 19.2835L21.2996 18.5864C21.1976 18.4815 21.0972 18.3781 20.9918 18.2698L20.2748 18.9669L19.5579 19.664C19.6617 19.7708 19.7645 19.8766 19.8657 19.9807L20.5826 19.2835ZM20.2748 18.9669L21.0973 18.3981C21.0708 18.3597 21.0519 18.3324 21.0362 18.3091C21.0205 18.2859 21.0137 18.2751 21.0114 18.2712C21.0063 18.2629 21.0386 18.3132 21.0626 18.3984C21.0747 18.4413 21.0815 18.4819 21.0849 18.5174C21.088 18.5507 21.0874 18.5737 21.0872 18.58C21.087 18.5852 21.087 18.5816 21.089 18.5609C21.091 18.54 21.0939 18.5144 21.0984 18.4736L20.1047 18.3619L19.111 18.2502C19.1039 18.3128 19.0918 18.4148 19.0884 18.5101C19.0845 18.6235 19.09 18.7718 19.1373 18.9399C19.1825 19.1007 19.2511 19.2258 19.3025 19.3104C19.3496 19.3878 19.4078 19.4712 19.4524 19.5357L20.2748 18.9669ZM20.1047 18.3619L21.0246 18.7541C21.0585 18.6746 21.0892 18.6024 21.1234 18.5221L20.2036 18.1298L19.2837 17.7375C19.2507 17.8149 19.2162 17.896 19.1848 17.9698L20.1047 18.3619Z" fill="#3C5979" mask="url(#path-8-inside-2_301_466)"/>
<mask id="path-10-inside-3_301_466" fill="white">
<path d="M4.70703 13.7373C5.56479 13.6908 5.56479 13.6908 5.88119 13.945C5.92702 14.0122 5.97285 14.0794 6.02014 14.1487C5.62467 14.4177 5.62467 14.4177 5.3618 14.3998C5.0276 14.2477 4.90123 14.0501 4.70703 13.7373Z"/>
</mask>
<path d="M4.70703 13.7373C5.56479 13.6908 5.56479 13.6908 5.88119 13.945C5.92702 14.0122 5.97285 14.0794 6.02014 14.1487C5.62467 14.4177 5.62467 14.4177 5.3618 14.3998C5.0276 14.2477 4.90123 14.0501 4.70703 13.7373Z" fill="#3C5979"/>
<path d="M4.70703 13.7373L4.65285 12.7388L2.96669 12.8303L3.85749 14.2648L4.70703 13.7373ZM5.88119 13.945L6.70729 13.3815L6.62348 13.2586L6.50755 13.1655L5.88119 13.945ZM6.02014 14.1487L6.58261 14.9755L7.41047 14.4123L6.84625 13.5852L6.02014 14.1487ZM5.3618 14.3998L4.94759 15.31L5.11276 15.3852L5.29381 15.3975L5.3618 14.3998ZM4.70703 13.7373L4.76121 14.7359C4.98269 14.7238 5.12365 14.7163 5.22835 14.7142C5.33683 14.712 5.34826 14.7176 5.32295 14.7131C5.30428 14.7098 5.27556 14.703 5.24172 14.6901C5.20789 14.6773 5.18222 14.6634 5.16727 14.6544C5.15499 14.647 5.15364 14.6449 5.17074 14.6579C5.18934 14.672 5.21228 14.6904 5.25483 14.7245L5.88119 13.945L6.50755 13.1655C6.37381 13.058 6.1065 12.8206 5.6713 12.7437C5.49922 12.7132 5.33004 12.7117 5.18739 12.7146C5.04096 12.7176 4.86025 12.7275 4.65285 12.7388L4.70703 13.7373ZM5.88119 13.945L5.0551 14.5085C5.10093 14.5757 5.14675 14.6429 5.19403 14.7122L6.02014 14.1487L6.84625 13.5852C6.79896 13.5159 6.75312 13.4487 6.70729 13.3815L5.88119 13.945ZM6.02014 14.1487L5.45768 13.3219C5.40741 13.3561 5.36725 13.3834 5.33233 13.4068C5.29734 13.4302 5.27303 13.4461 5.25509 13.4574C5.23698 13.4688 5.23181 13.4714 5.23511 13.4696C5.23908 13.4675 5.25674 13.4583 5.28486 13.4475C5.31481 13.4361 5.35048 13.4253 5.39016 13.4176C5.42912 13.41 5.46092 13.4075 5.48095 13.4067C5.49861 13.406 5.50648 13.4068 5.49516 13.4063C5.48256 13.4057 5.46574 13.4046 5.4298 13.4021L5.3618 14.3998L5.29381 15.3975C5.38434 15.4037 5.67574 15.439 5.99763 15.3162C6.13112 15.2653 6.24207 15.1993 6.31972 15.1505C6.39829 15.1011 6.48989 15.0386 6.58261 14.9755L6.02014 14.1487ZM5.3618 14.3998L5.77601 13.4896C5.74609 13.476 5.73434 13.4676 5.73229 13.4662C5.73096 13.4652 5.72868 13.4637 5.72221 13.4565C5.71391 13.4474 5.69789 13.4281 5.66968 13.3869C5.63971 13.343 5.60668 13.2905 5.55657 13.2098L4.70703 13.7373L3.85749 14.2648C4.05809 14.5879 4.31789 15.0234 4.94759 15.31L5.3618 14.3998Z" fill="#3C5979" mask="url(#path-10-inside-3_301_466)"/>
<mask id="path-12-inside-4_301_466" fill="white">
<path d="M6.15109 14.2845C6.34291 14.3007 6.53453 14.3187 6.72616 14.3375C6.88619 14.3523 6.88619 14.3523 7.04952 14.3674C7.3338 14.4244 7.3338 14.4244 7.59571 14.6962C7.46369 14.8312 7.46369 14.8312 7.02813 14.8548C6.58985 14.8302 6.3782 14.7938 6.01855 14.5547C6.06229 14.4655 6.10603 14.3763 6.15109 14.2845Z"/>
</mask>
<path d="M6.15109 14.2845C6.34291 14.3007 6.53453 14.3187 6.72616 14.3375C6.88619 14.3523 6.88619 14.3523 7.04952 14.3674C7.3338 14.4244 7.3338 14.4244 7.59571 14.6962C7.46369 14.8312 7.46369 14.8312 7.02813 14.8548C6.58985 14.8302 6.3782 14.7938 6.01855 14.5547C6.06229 14.4655 6.10603 14.3763 6.15109 14.2845Z" fill="#3C5979"/>
<path d="M6.15109 14.2845L6.23505 13.2881L5.55434 13.2307L5.25337 13.844L6.15109 14.2845ZM6.72616 14.3375L6.62856 15.3327L6.63407 15.3333L6.72616 14.3375ZM7.04952 14.3674L7.24631 13.3869L7.19432 13.3765L7.14153 13.3716L7.04952 14.3674ZM7.59571 14.6962L8.31052 15.3955L8.98959 14.7014L8.31573 14.0023L7.59571 14.6962ZM7.02813 14.8548L6.97201 15.8532L7.02719 15.8563L7.08237 15.8533L7.02813 14.8548ZM6.01855 14.5547L5.12071 14.1144L4.73447 14.902L5.46501 15.3876L6.01855 14.5547ZM6.15109 14.2845L6.06712 15.281C6.25271 15.2966 6.43941 15.3142 6.62856 15.3327L6.72616 14.3375L6.82376 13.3423C6.62965 13.3232 6.4331 13.3047 6.23505 13.2881L6.15109 14.2845ZM6.72616 14.3375L6.63407 15.3333C6.79412 15.3481 6.79415 15.3481 6.95751 15.3631L7.04952 14.3674L7.14153 13.3716C6.97822 13.3565 6.97825 13.3565 6.81825 13.3417L6.72616 14.3375ZM7.04952 14.3674L6.85273 15.3478C6.87086 15.3515 6.88585 15.3545 6.89962 15.3573C6.91327 15.3601 6.92388 15.3623 6.93259 15.3642C6.9511 15.3682 6.95428 15.3692 6.94974 15.368C6.94397 15.3664 6.92536 15.3609 6.89953 15.3504C6.87227 15.3392 6.84353 15.3251 6.81524 15.308C6.78779 15.2915 6.76797 15.2766 6.75689 15.2677C6.74688 15.2597 6.74427 15.2567 6.75205 15.2641C6.75997 15.2716 6.77295 15.2844 6.79483 15.3067C6.81673 15.329 6.84207 15.3553 6.87569 15.3902L7.59571 14.6962L8.31573 14.0023C8.25653 13.9408 8.18923 13.8707 8.12765 13.8123C8.06233 13.7504 7.96915 13.6682 7.84676 13.5946C7.59844 13.4451 7.33369 13.4045 7.24631 13.3869L7.04952 14.3674ZM7.59571 14.6962L6.8809 13.9969C6.87211 14.0059 6.86687 14.0112 6.86239 14.0157C6.85813 14.02 6.85724 14.0209 6.85834 14.0198C6.85982 14.0184 6.87747 14.0013 6.90621 13.9794C6.93765 13.9554 6.9785 13.9285 7.02808 13.9039C7.07715 13.8795 7.12161 13.8639 7.1566 13.8541C7.18939 13.845 7.21177 13.8415 7.21641 13.8408C7.22083 13.8402 7.21621 13.841 7.19646 13.8427C7.1771 13.8444 7.15049 13.8462 7.11199 13.8486C7.07362 13.8509 7.0292 13.8533 6.97389 13.8563L7.02813 14.8548L7.08237 15.8533C7.18467 15.8478 7.28487 15.8425 7.36754 15.8354C7.44542 15.8287 7.56634 15.8163 7.69489 15.7803C7.85113 15.7367 7.99178 15.6667 8.11895 15.5698C8.21429 15.4971 8.29383 15.4126 8.31052 15.3955L7.59571 14.6962ZM7.02813 14.8548L7.08425 13.8564C6.87009 13.8444 6.80072 13.8325 6.7595 13.8211C6.73719 13.815 6.69151 13.8013 6.57209 13.7219L6.01855 14.5547L5.46501 15.3876C5.70524 15.5472 5.94521 15.6713 6.22821 15.7492C6.4923 15.822 6.74789 15.8406 6.97201 15.8532L7.02813 14.8548ZM6.01855 14.5547L6.9164 14.995C6.96019 14.9058 7.00382 14.8168 7.0488 14.7251L6.15109 14.2845L5.25337 13.844C5.20823 13.9359 5.1644 14.0253 5.12071 14.1144L6.01855 14.5547Z" fill="#3C5979" mask="url(#path-12-inside-4_301_466)"/>
<mask id="path-14-inside-5_301_466" fill="white">
<path d="M4.32739 9.9455C4.4142 9.94589 4.50097 9.94618 4.59036 9.94657C4.45776 10.5715 4.32513 11.1963 4.18852 11.8402C4.14512 11.84 4.10174 11.8398 4.05704 11.8396C4.01351 10.5656 4.01352 10.5656 4.32739 9.9455Z"/>
</mask>
<path d="M4.32739 9.9455C4.4142 9.94589 4.50097 9.94618 4.59036 9.94657C4.45776 10.5715 4.32513 11.1963 4.18852 11.8402C4.14512 11.84 4.10174 11.8398 4.05704 11.8396C4.01351 10.5656 4.01352 10.5656 4.32739 9.9455Z" fill="#3C5979"/>
<path d="M4.32739 9.9455L4.33187 8.94551L3.71413 8.94273L3.43516 9.49391L4.32739 9.9455ZM4.59036 9.94657L5.56858 10.1541L5.82368 8.95193L4.59472 8.94658L4.59036 9.94657ZM4.18852 11.8402L4.18403 12.8402L4.99783 12.8438L5.16674 12.0477L4.18852 11.8402ZM4.05704 11.8396L3.05763 11.8738L3.09049 12.8354L4.05269 12.8396L4.05704 11.8396ZM4.32739 9.9455L4.3229 10.9455C4.40761 10.9459 4.50012 10.9462 4.58601 10.9466L4.59036 9.94657L4.59472 8.94658C4.50182 8.94617 4.42079 8.9459 4.33187 8.94551L4.32739 9.9455ZM4.59036 9.94657L3.61214 9.739C3.47958 10.3637 3.3469 10.9888 3.21029 11.6326L4.18852 11.8402L5.16674 12.0477C5.30337 11.4038 5.43595 10.7792 5.56858 10.1541L4.59036 9.94657ZM4.18852 11.8402L4.193 10.8402C4.14962 10.84 4.10618 10.8398 4.0614 10.8396L4.05704 11.8396L4.05269 12.8396C4.09731 12.8398 4.14063 12.84 4.18403 12.8402L4.18852 11.8402ZM4.05704 11.8396L5.05646 11.8054C5.033 11.119 5.03015 10.9148 5.04815 10.7887C5.05494 10.7411 5.05112 10.73 5.21962 10.3971L4.32739 9.9455L3.43516 9.49391C3.28978 9.78114 3.12902 10.0801 3.06822 10.5061C3.01864 10.8534 3.03755 11.2862 3.05763 11.8738L4.05704 11.8396Z" fill="#3C5979" mask="url(#path-14-inside-5_301_466)"/>
<mask id="path-16-inside-6_301_466" fill="white">
<path d="M14.9435 18.5153C15.4108 18.5996 15.8212 18.7323 16.2565 18.9265C16.2563 18.9712 16.2562 19.0159 16.256 19.0619C15.3848 19.0923 15.3848 19.0923 14.9424 18.786C14.9428 18.6966 14.9431 18.6073 14.9435 18.5153Z"/>
</mask>
<path d="M14.9435 18.5153C15.4108 18.5996 15.8212 18.7323 16.2565 18.9265C16.2563 18.9712 16.2562 19.0159 16.256 19.0619C15.3848 19.0923 15.3848 19.0923 14.9424 18.786C14.9428 18.6966 14.9431 18.6073 14.9435 18.5153Z" fill="#3C5979"/>
<path d="M14.9435 18.5153L15.121 17.5312L13.9485 17.3196L13.9435 18.5111L14.9435 18.5153ZM16.2565 18.9265L17.2565 18.9308L17.2594 18.2788L16.6638 18.0132L16.2565 18.9265ZM16.256 19.0619L16.2909 20.0613L17.252 20.0278L17.256 19.0661L16.256 19.0619ZM14.9424 18.786L13.9424 18.7816L13.9401 19.3083L14.3732 19.6082L14.9424 18.786ZM14.9435 18.5153L14.7659 19.4994C15.1455 19.5679 15.4789 19.6746 15.8492 19.8398L16.2565 18.9265L16.6638 18.0132C16.1635 17.79 15.6761 17.6313 15.121 17.5312L14.9435 18.5153ZM16.2565 18.9265L15.2565 18.9221C15.2564 18.9572 15.2562 19.024 15.2561 19.0577L16.256 19.0619L17.256 19.0661C17.2563 19.0078 17.2563 18.9851 17.2565 18.9308L16.2565 18.9265ZM16.256 19.0619L16.2212 18.0625C15.9955 18.0704 15.8549 18.0751 15.7494 18.0747C15.6449 18.0743 15.628 18.0682 15.644 18.0716C15.7138 18.0862 15.7719 18.144 15.5116 17.9638L14.9424 18.786L14.3732 19.6082C14.5553 19.7343 14.8347 19.9452 15.2329 20.0288C15.5475 20.0949 15.9219 20.0742 16.2909 20.0613L16.256 19.0619ZM14.9424 18.786L15.9424 18.7903C15.9428 18.703 15.9431 18.6082 15.9434 18.5195L14.9435 18.5153L13.9435 18.5111C13.9431 18.6064 13.9428 18.6902 13.9424 18.7816L14.9424 18.786Z" fill="#3C5979" mask="url(#path-16-inside-6_301_466)"/>
<mask id="path-18-inside-7_301_466" fill="white">
<path d="M14.2886 17.836C14.375 17.9257 14.4614 18.0154 14.5505 18.1078C14.4638 18.1074 14.3769 18.1071 14.2876 18.1067C14.2879 18.0173 14.2883 17.9281 14.2886 17.836Z"/>
</mask>
<path d="M14.2886 17.836C14.375 17.9257 14.4614 18.0154 14.5505 18.1078C14.4638 18.1074 14.3769 18.1071 14.2876 18.1067C14.2879 18.0173 14.2883 17.9281 14.2886 17.836Z" fill="#3C5979"/>
<path d="M14.2886 17.836L15.0086 17.1421L13.2964 15.3656L13.2886 17.8329L14.2886 17.836ZM14.5505 18.1078L14.546 19.1078L16.9133 19.1184L15.2705 17.4139L14.5505 18.1078ZM14.2876 18.1067L13.2876 18.1035L13.2843 19.1024L14.2832 19.1067L14.2876 18.1067ZM14.2886 17.836L13.5686 18.53C13.655 18.6197 13.7414 18.7093 13.8305 18.8017L14.5505 18.1078L15.2705 17.4139C15.1815 17.3214 15.095 17.2318 15.0086 17.1421L14.2886 17.836ZM14.5505 18.1078L14.555 17.1078C14.4703 17.1074 14.3779 17.1071 14.292 17.1067L14.2876 18.1067L14.2832 19.1067C14.376 19.1071 14.4572 19.1074 14.546 19.1078L14.5505 18.1078ZM14.2876 18.1067L15.2876 18.11C15.2879 18.026 15.2883 17.9273 15.2886 17.8392L14.2886 17.836L13.2886 17.8329C13.2883 17.9288 13.2879 18.0087 13.2876 18.1035L14.2876 18.1067Z" fill="#3C5979" mask="url(#path-18-inside-7_301_466)"/>
<path d="M26.7941 13.824C26.8228 6.47087 20.96 0.486914 13.6992 0.458438C6.43825 0.429961 0.528854 6.36774 0.500105 13.7209C0.471357 21.0739 6.33423 27.0579 13.5951 27.0863C20.8559 27.1149 26.7654 21.177 26.7941 13.824Z" stroke="#3C5979"/>
</svg>
