<svg width="29" height="29" viewBox="0 0 29 29" fill="none" xmlns="http://www.w3.org/2000/svg">
<path d="M27.6952 14.4658C27.8971 6.95746 21.9742 0.707001 14.4658 0.505016C6.95747 0.30303 0.707001 6.22602 0.505016 13.7344C0.303031 21.2428 6.22601 27.4932 13.7344 27.6952C21.2427 27.8972 27.4932 21.9742 27.6952 14.4658Z" stroke="#3C5979"/>
<path d="M18.5577 11.8215C18.6388 8.80943 15.6204 6.28692 11.8142 6.18453C8.00804 6.08214 4.85841 8.43872 4.77738 11.4508C4.74594 12.6194 5.18405 13.7087 5.95184 14.6193C5.48027 15.6363 4.72619 16.4343 4.71598 16.4443C4.64099 16.5207 4.618 16.636 4.65831 16.7394C4.69863 16.8428 4.78973 16.9066 4.89573 16.9094C6.10813 16.942 7.12312 16.55 7.8569 16.1366C8.90914 16.7003 10.1628 17.0511 11.5209 17.0876C15.3271 17.19 18.4767 14.8335 18.5577 11.8215ZM22.3974 19.4261C23.2129 18.5615 23.709 17.494 23.7405 16.3253C23.8018 14.0458 22.0821 12.0458 19.5931 11.1639C19.6169 11.3897 19.6239 11.6183 19.6177 11.85C19.5206 15.4582 15.8741 18.2959 11.4916 18.178C11.1338 18.1684 10.7867 18.1318 10.4432 18.085C11.434 20.0722 13.8482 21.5147 16.7037 21.5915C18.0618 21.628 19.3324 21.3485 20.4135 20.8388C21.124 21.291 22.1164 21.7371 23.3288 21.7697C23.4349 21.7726 23.5326 21.7104 23.575 21.6127C23.6207 21.515 23.604 21.3987 23.5333 21.3149C23.5237 21.3044 22.8135 20.4704 22.3974 19.4261Z" fill="#3C5979"/>
</svg>
