<svg width="104" height="100" viewBox="0 0 104 100" fill="none" xmlns="http://www.w3.org/2000/svg">
<g clip-path="url(#clip0_301_492)">
<path d="M50.6377 99.4825C77.9659 100.218 100.716 78.6597 101.451 51.3315C102.186 24.0033 80.6282 1.25346 53.3 0.518298C25.9718 -0.216867 3.2219 21.3411 2.48674 48.6693C1.75157 75.9975 23.3095 98.7473 50.6377 99.4825Z" stroke="#3C5979"/>
<path d="M1.4598 49.642C2.28793 49.6642 2.97732 49.011 2.99959 48.1828C3.02187 47.3547 2.3686 46.6653 1.54047 46.643C0.712346 46.6208 0.022956 47.274 0.00067825 48.1022C-0.0215995 48.9303 0.631671 49.6197 1.4598 49.642Z" fill="#3C5979"/>
<path d="M5.83968 72.7682C6.66781 72.7904 7.3572 72.1372 7.37948 71.309C7.40175 70.4809 6.74848 69.7915 5.92036 69.7692C5.09223 69.747 4.40284 70.4002 4.38056 71.2284C4.35828 72.0565 5.01155 72.7459 5.83968 72.7682Z" fill="#3C5979"/>
<path d="M24.2679 94.2715C25.096 94.2937 25.7854 93.6405 25.8077 92.8123C25.83 91.9842 25.1767 91.2948 24.3486 91.2725C23.5205 91.2503 22.8311 91.9035 22.8088 92.7317C22.7865 93.5598 23.4398 94.2492 24.2679 94.2715Z" fill="#3C5979"/>
<path d="M102.424 52.3581C103.252 52.3803 103.941 51.7271 103.963 50.8989C103.986 50.0708 103.332 49.3814 102.504 49.3591C101.676 49.3369 100.987 49.9901 100.965 50.8183C100.942 51.6464 101.596 52.3358 102.424 52.3581Z" fill="#3C5979"/>
<path d="M96.807 75.2153C97.6351 75.2375 98.3245 74.5843 98.3468 73.7561C98.369 72.928 97.7158 72.2386 96.8876 72.2163C96.0595 72.1941 95.3701 72.8473 95.3478 73.6755C95.3256 74.5036 95.9788 75.193 96.807 75.2153Z" fill="#3C5979"/>
<path d="M77.2489 95.6968C78.077 95.719 78.7664 95.0658 78.7887 94.2376C78.8109 93.4095 78.1577 92.7201 77.3295 92.6978C76.5014 92.6756 75.812 93.3288 75.7897 94.157C75.7675 94.9851 76.4207 95.6745 77.2489 95.6968Z" fill="#3C5979"/>
<path fill-rule="evenodd" clip-rule="evenodd" d="M60.5151 72.6742L60.6932 73.3933L62.4744 74.8315L65.6804 74.4719L65.3242 73.7528L63.0087 71.9551H62.2963L60.5151 72.6742Z" fill="#3C5979"/>
<path fill-rule="evenodd" clip-rule="evenodd" d="M63.7212 71.0562V71.4157L64.7899 72.4944L67.6396 74.1124H70.1332L72.0924 73.7528V73.2135L68.5302 71.9551L65.6804 69.7978L64.7899 69.9775L63.7212 71.0562Z" fill="#3C5979"/>
<path fill-rule="evenodd" clip-rule="evenodd" d="M66.749 69.2584L66.9271 69.7978L68.5301 70.8764L72.4486 72.4944L74.764 72.8539L76.0108 71.9551V71.4157L75.1203 70.6966L72.4486 69.618L70.1331 69.0787L66.749 69.2584Z" fill="#3C5979"/>
<path fill-rule="evenodd" clip-rule="evenodd" d="M51.0752 70.6966V71.4157L51.9658 72.4944L54.6374 73.9326L57.3091 75.9101L59.2683 77.8876L63.3649 82.9213L65.146 82.2022L66.5709 81.1236V80.764L64.7898 78.2472L63.543 75.9101L62.2962 75.7303L61.0494 75.0112L58.734 72.3146L58.0215 72.1348L56.9529 71.0562L55.8842 69.0787L51.0752 70.6966Z" fill="#3C5979"/>
<path fill-rule="evenodd" clip-rule="evenodd" d="M65.1461 67.1011L61.9401 67.2809L58.1998 68.1798L57.4873 68.7191V69.7977L58.556 71.236H59.2684L59.8028 71.5955L61.0495 71.4157L63.8993 69.2584L64.968 67.8202L65.1461 67.1011Z" fill="#3C5979"/>
<path fill-rule="evenodd" clip-rule="evenodd" d="M66.749 67.4607V68.1798L71.7361 68.5393L74.5859 69.4382L76.7233 70.6966L77.4357 70.5169L78.1482 68.5393V67.8202L72.9829 66.2022H69.5988L67.8177 66.7416L66.749 67.4607Z" fill="#3C5979"/>
<path fill-rule="evenodd" clip-rule="evenodd" d="M65.1459 65.1236V64.4045L63.0085 62.9663L62.118 63.1461L60.515 64.0449H58.5557L57.1308 63.5056H55.8841L55.5278 63.8652L55.7059 64.9438L57.1308 66.382L63.721 65.8427L65.1459 65.1236Z" fill="#3C5979"/>
<path fill-rule="evenodd" clip-rule="evenodd" d="M25.7832 57.2135L25.9613 57.9326L28.9892 58.8315H31.4828L32.1952 58.1124V57.3933L28.4549 57.2135L27.3862 56.6742H26.3175L25.7832 57.2135Z" fill="#3C5979"/>
<path fill-rule="evenodd" clip-rule="evenodd" d="M20.4399 54.5169V54.8764L22.3992 56.6742L23.6459 57.2135L24.5365 57.0337L26.1395 56.1348V55.7753L25.6052 55.236L24.3584 54.6966L20.4399 54.5169Z" fill="#3C5979"/>
<path fill-rule="evenodd" clip-rule="evenodd" d="M85.9851 46.7865L84.9164 47.8652V48.4045L85.4507 49.3034V50.7416L84.7383 52.3595L85.2726 52.8989L87.9443 53.2584L88.1224 52.5393L87.5881 49.1236L86.8756 47.1461L86.5194 46.7865H85.9851Z" fill="#3C5979"/>
<path fill-rule="evenodd" clip-rule="evenodd" d="M20.44 39.9551H19.1932L18.4807 42.1124L18.1245 44.0899L18.3026 47.5056H18.6588L18.837 45.1685L19.7275 42.1124L20.44 40.6742V39.9551Z" fill="#3C5979"/>
<path fill-rule="evenodd" clip-rule="evenodd" d="M75.2985 34.9213L73.8736 36L72.9831 39.7753V43.7303L73.6955 46.9663L74.0517 47.6854L75.6547 49.3034L76.9015 49.8427H78.1483L79.217 49.4831L80.1075 48.764L81.1762 46.2472L81.7105 47.3258L82.0668 49.1236L81.7105 53.0786L80.2856 55.7753L80.1075 55.4157L80.82 53.2584L80.9981 49.8427L79.9294 49.6629L78.5045 50.9213L77.9702 52.1798L77.4359 52.7191L77.2577 52.3595L77.7921 51.4607V50.5618L75.6547 50.2022L74.2298 49.4831L72.805 47.6854L72.6268 46.6067H72.0925L71.2019 49.1236L68.5303 52.7191V54.5169L71.9144 56.1348L77.4359 55.7753L77.614 55.9551L76.3672 56.6742L76.011 57.3933L76.3672 59.3708L77.4359 60.2697H80.4637L82.7792 58.8315L82.9573 59.0112L82.6011 59.5506L80.6419 60.9888L79.3951 61.3483L76.5453 61.1685L76.3672 62.0674L75.4766 63.5056L75.6547 65.1236L76.9015 66.0225L78.6826 66.5618H81.7105L84.5603 65.3034L85.4509 64.2247L85.629 63.5056L85.0947 62.9663H83.8479L83.1354 63.5056H82.6011L80.9981 65.1236L80.82 64.9438L81.3543 64.2247V63.6854L80.2856 63.3258L82.423 63.1461L83.8479 62.2472H85.8071L86.5195 61.8876L87.0539 61.1685V59.9101L86.1633 58.6517L85.9852 57.9326L86.1633 57.7528L86.8758 58.6517L87.7663 58.8315L88.3007 57.573V55.7753L87.232 54.3371L85.4509 53.618L85.2728 55.4157L84.7384 56.1348L84.5603 55.9551L84.7384 54.5169L84.026 52.8989V52L84.9165 50.382V49.4831L84.3822 48.5843L83.6698 48.0449L84.7384 46.9663L85.4509 45.5281V43.7303L85.0947 42.6517L84.026 41.573H82.423L79.217 44.9888L78.1483 45.1685L77.0796 44.6292L76.3672 43.5506L76.1891 40.3146L75.8328 39.5955L76.011 39.236L76.5453 39.7753L76.9015 41.0337H77.4359L78.5045 40.1348L78.6826 38.6966H79.0389L79.217 39.9551L78.8607 40.6742L77.2577 42.1124L77.4359 43.3708L78.3264 43.9101L79.7513 43.5506L80.2856 42.8315L80.6419 41.2135L81.5324 40.4944L83.1354 40.3146V39.7753L81.3543 37.0786L79.9294 35.6404L77.2577 34.7416L75.2985 34.9213ZM79.9294 55.7753L80.1075 55.5955L80.2856 55.9551L80.1075 56.1348L79.9294 55.7753Z" fill="#3C5979"/>
<path fill-rule="evenodd" clip-rule="evenodd" d="M34.8671 25.2135H34.1547L32.3736 25.9326L26.8521 29.5281L24.1804 32.2247V32.5843H24.8929L26.8521 30.7865H28.6332L26.8521 31.5056L25.4272 33.1236L22.5774 34.2022L20.6182 36.7191L19.9058 38.1573V38.8764L20.4401 39.236H21.3307L23.8242 37.0787L25.9616 36.1798L27.2083 36.3596L28.4551 37.4382H29.3457L29.88 36.7191V36.1798L28.9895 34.9214L27.7427 34.382H26.674L25.7834 34.7416L25.4272 34.5618L26.674 33.8427H29.3457L29.88 32.9438L32.3736 30.427L32.7298 28.9888L32.1955 28.2697L33.086 28.0899L34.3328 27.191L34.689 26.6517L34.8671 25.2135Z" fill="#3C5979"/>
<path fill-rule="evenodd" clip-rule="evenodd" d="M76.9013 32.4045L73.8735 29.7079H73.161L72.6267 30.0674L72.2704 30.7865L72.4486 31.6854L72.0923 31.8652L71.558 30.9663L71.9142 28.4494L71.7361 27.9101L70.8456 27.191H69.7769L67.6395 28.0899H66.3928L65.3241 27.7303V27.3708H67.6395L68.8863 26.6517V26.1124L68.5301 25.7528L66.749 25.0337H64.7898L62.6524 25.9326L61.7619 27.3708L59.9807 27.5506L58.3777 28.0899L56.9528 28.9888L56.0623 29.8876L55.8842 31.1461L57.4872 32.5843V32.9438L56.4185 33.8427L54.1031 34.382L51.4314 35.6404L50.3627 36.8989L49.6503 38.3371L49.1159 40.4944V43.0112L50.1846 45.8876L49.4722 47.3258V48.764L50.1846 48.5843L52.5001 46.2472L55.7061 44.809L56.2404 44.2697L56.4185 42.6517L56.0623 41.9326V40.1348L56.4185 39.4157L56.7747 41.3933L57.6653 43.0112L58.3777 43.7303L59.4464 44.2697H61.7619L63.1868 43.7303L64.4335 42.6517L65.5022 40.8539L66.2146 38.3371L67.6395 37.0787L67.9958 37.2584L66.749 39.4157L66.3928 42.2921L65.5022 43.7303L64.2554 44.809V45.1685L65.5022 46.7865V47.6854H65.146L64.2554 46.0674L63.1868 45.5281L60.5151 45.7079L58.5559 45.1685H57.4872L55.7061 46.427L53.5687 46.9663L50.7189 49.8427L48.5816 50.9213L47.1567 52.3596L46.088 55.5955V56.8539L46.4443 58.1124L46.8005 58.4719H47.5129L48.5816 57.2135L48.7597 57.3933L48.4035 58.2921L47.3348 59.5506V60.6292L48.5816 61.8876L48.4035 62.0674L46.8005 60.9888H45.7318L44.3069 61.5281L43.5945 62.2472L43.4164 62.0674L44.1288 61.1685L46.2662 59.9101V59.191L45.7318 58.4719L45.1975 56.6742L45.3756 53.9775L46.2662 51.4607L45.1975 51.1011H42.1696L39.4979 52.3596L36.8262 54.3371L34.867 56.3146L33.7983 58.6517V60.9888L34.6889 63.6854L35.9357 65.1236L37.8949 66.2022L37.3606 66.382L36.1138 65.8427H35.2232V66.5618L37.1825 68.3596L38.9636 69.2584L43.7726 70.1573H45.7318L49.4722 69.618L53.3906 68.3596L56.2404 67.1011V66.7416L54.6374 65.3034L53.9249 63.8652H52.5001L50.5408 64.5843L49.8284 65.6629V66.9213L49.1159 68.3596L48.9378 65.8427L48.2254 65.3034L46.2662 65.1236L47.1567 64.5843H49.294L51.9657 63.1461L52.3219 62.427L52.1438 61.7079L52.6782 60.0899L53.0344 62.0674L54.2812 62.9663L56.4185 62.7865L57.6653 60.9888V62.2472L58.5559 63.1461H60.5151L62.8305 62.2472L63.8992 62.6067L65.8584 63.8652L68.7082 64.5843H71.7361L73.8735 63.8652L75.1202 62.6067L75.6546 61.1685L75.4765 58.2921L74.764 56.8539L71.9142 57.0337L70.6674 56.6742L68.8863 55.5955H67.4614L65.146 57.0337H63.1868L65.3241 56.1348L67.1052 54.6966L67.6395 53.7978V52.5393L65.5022 52.7191L64.7898 52.3596L66.749 52L67.8177 51.4607L69.0644 50.2022L69.955 48.9438L71.558 45.1685L71.9142 43.0112V39.7753L72.6267 37.0787V35.4607L71.9142 33.8427L70.6674 32.764L71.2018 32.5843L73.161 34.2022L76.9013 33.8427L77.2576 33.3034L76.9013 32.4045ZM41.279 68.3596L41.4571 68.1798L41.6353 68.5393L41.4571 68.7191L41.279 68.3596ZM70.6674 59.3708L69.4207 59.9101L69.2425 61.1685L68.1739 60.809L65.3241 60.9888L64.4335 60.4494L66.9271 60.0899L69.5988 59.0112H70.3112L70.6674 59.3708ZM43.2383 54.3371L43.4164 54.6966L43.0601 55.4157L40.9228 57.7528L40.2104 61.3483V62.9663L40.9228 65.1236L42.3477 66.5618L43.9507 67.2809L42.3477 67.4607L41.6353 68.3596L41.279 66.7416L39.4979 64.0449L38.7855 61.5281L37.5387 60.6292L36.47 60.4494L37.0043 60.0899L39.1417 60.4494L39.4979 60.0899L40.2104 57.2135L42.3477 55.5955L43.2383 54.3371ZM61.5837 50.382V50.7416L60.6932 50.9213L57.6653 53.2584L56.0623 53.7978L56.2404 55.0562L58.9121 56.3146L59.8026 57.3933L60.1589 58.4719L59.9807 58.6517L58.5559 56.8539L56.7747 56.6742L56.4185 57.0337L56.0623 58.8315L55.7061 59.191V56.4944L55.1717 54.6966L53.7468 53.0787L51.4314 52.7191L52.3219 52.1798L56.5966 52.5393L60.337 50.5618L61.5837 50.382ZM69.0644 30.427L67.8177 31.6854L65.5022 31.8652L64.4335 32.5843L63.543 34.7416L60.6932 37.4382L60.337 38.1573V39.4157L60.6932 39.9551L60.5151 40.3146L59.9807 39.7753L59.6245 37.2584L59.2683 36.8989L57.131 36.7191L55.3498 37.4382L54.9936 37.2584L57.131 36L58.1996 35.8202L60.5151 36.1798L62.2962 34.9213L63.0086 33.8427L63.1868 32.2247L62.6524 31.5056L61.94 31.1461L62.1181 30.9663L64.2554 31.6854L65.3241 31.1461H67.4614L68.8863 30.2472L69.0644 30.427ZM68.8863 30.0674L69.0644 29.8876L69.2425 30.2472L69.0644 30.427L68.8863 30.0674Z" fill="#3C5979"/>
<path fill-rule="evenodd" clip-rule="evenodd" d="M64.0775 24.1348L62.2964 23.236H61.4058L58.7341 24.1348H57.4874L57.3092 23.9551L57.8436 23.5955L58.0217 22.8764L57.3092 22.5169L55.1719 22.1573H49.8286L48.7599 23.0562L48.4037 24.4944L48.0474 24.3146L47.5131 22.6966L46.0882 22.8764L44.129 24.8539H42.3479L41.4573 25.3933L41.2792 25.0337L42.3479 24.3146L43.9509 24.1348L44.3071 23.7753V23.0562H41.8135L37.0045 24.3146L35.9359 25.0337L35.5796 25.573V26.4719L38.2513 26.8315L38.9637 27.3708L39.1419 28.0899L40.2105 27.5506L40.5668 27.7303L39.8543 28.4494L39.1419 29.8876L38.9637 30.9663L41.8135 34.0225L43.4165 34.2022L44.3071 33.4831L43.7728 30.7865L44.3071 29.5281V27.191L45.1977 26.1124L45.5539 26.2921L45.0195 27.0112V32.2247L45.732 32.764H46.6225L47.8693 32.2247L49.1161 30.9663L49.2942 31.1461L48.938 32.0449L47.6912 33.3034L45.1977 34.0225L44.6633 34.7416L43.2384 35.6404L43.5946 37.0787V38.8764L43.0603 40.6742L44.3071 43.0112L44.4852 44.2697H44.129L43.7728 43.191L42.8822 42.1124L41.6354 41.573L37.717 42.4719L33.0861 42.6517L32.3736 43.3708L30.7706 46.427L28.9895 47.6854L28.2771 48.5843V50.382L28.6333 50.9213L29.8801 51.8202L31.4831 52.1798L31.8393 52.5393L31.6612 52.7191H30.2363L28.4552 51.8202L26.1397 48.9438L23.6461 48.764L22.0431 47.6854L22.3994 47.5056L23.468 48.0449H25.9616L27.5646 47.3258V46.7865L26.8522 46.427L26.3178 45.5281L26.4959 45.3483L28.2771 46.2472L30.0582 45.8876L30.7706 45.1685L31.4831 43.191L32.908 41.573H36.114L38.6075 41.2135L41.1011 40.3146L42.1698 39.236L42.526 38.3371V36.8989L40.7449 33.8427L39.4981 32.5843L38.2513 32.0449L37.8951 31.5056L38.6075 29.3483L38.4294 27.9101L37.717 27.3708H35.5796L34.511 27.7303L33.6204 28.4494L33.2642 29.8876L33.6204 30.2472L35.2234 30.427L32.1955 31.5056L30.9487 32.764L30.2363 34.382V35.4607L30.4144 35.8202L31.8393 35.4607H33.7985L35.7577 36.5393L37.717 36.8989L37.1826 37.2584H35.9359L33.7985 36.3596L32.0174 36.5393L30.9487 37.4382L30.5925 39.236L29.5238 40.6742L29.3457 40.3146L29.8801 39.4157V38.5169H28.6333L26.8522 36.8989L25.4273 37.0787L23.1118 38.5169L20.9745 41.0337L19.9058 43.9101V46.427L19.1934 47.3258V50.5618L19.9058 53.0787L20.9745 53.7978H22.9337L24.0024 52.1798L25.071 54.1573L27.9208 55.7753L31.1268 56.4944L32.908 56.3146L33.7985 55.7753L35.9359 53.4382L37.8951 52V51.6404L35.9359 51.1011L34.511 49.6629L33.9766 48.0449L34.1547 47.8652L35.7577 49.8427L36.8264 50.382H38.0732L38.7856 49.6629L38.9637 48.764L40.3886 46.427L40.5668 44.2697L41.1011 45.1685L41.2792 46.2472L40.0324 49.3034V50.5618L41.8135 49.8427L46.9788 49.6629L48.0474 48.5843L48.938 46.2472V45.3483L48.0474 43.7303L47.8693 42.8315L48.0474 38.8764L48.938 36.7191L51.0753 34.382L54.8157 32.9438L54.9938 31.1461L54.2813 29.8876L54.4595 29.7079H54.9938L56.4187 28.0899L57.4874 27.5506L59.9809 27.0112L61.5839 26.2921L61.9401 25.7528L61.762 25.2135L62.1183 24.8539H63.7213L64.0775 24.1348ZM25.071 39.4157L25.7835 40.4944L27.2084 41.7528L24.3586 42.8315L22.7556 44.0899L22.5775 43.7303L22.9337 43.191L25.071 41.573V39.4157ZM50.7191 23.7753V25.7528L51.2534 26.4719L52.3221 26.2921L53.9251 24.6742L54.4595 24.8539L53.2127 26.1124L51.9659 28.4494L51.6097 27.9101L50.8972 27.5506L48.0474 27.3708L48.5818 27.0112L50.0067 26.8315V25.0337L50.7191 23.7753Z" fill="#3C5979"/>
</g>
<defs>
<clipPath id="clip0_301_492">
<rect width="104" height="100" fill="white"/>
</clipPath>
</defs>
</svg>
