<svg width="29" height="29" viewBox="0 0 29 29" fill="none" xmlns="http://www.w3.org/2000/svg">
<mask id="mask0_301_261" style="mask-type:luminance" maskUnits="userSpaceOnUse" x="6" y="6" width="16" height="16">
<path d="M21.9375 6.46811H6.5V21.8298H21.9375V6.46811Z" fill="white"/>
</mask>
<g mask="url(#mask0_301_261)">
<path d="M11.5172 16.4531C11.4596 16.4531 11.4019 16.4616 11.347 16.4793C11.0344 16.5803 10.7056 16.6452 10.3594 16.6452C10.0133 16.6452 9.68464 16.5803 9.37174 16.4793C9.31674 16.4616 9.25934 16.4531 9.20164 16.4531C7.70474 16.4531 6.49224 17.6648 6.50004 19.1563C6.50354 19.7866 7.02434 20.2936 7.65794 20.2936H13.061C13.6946 20.2936 14.2155 19.7866 14.2188 19.1563C14.2268 17.6648 13.0143 16.4531 11.5172 16.4531ZM10.3594 15.6851C11.6384 15.6851 12.675 14.6534 12.675 13.3808C12.675 12.1082 11.6384 11.0766 10.3594 11.0766C9.08054 11.0766 8.04384 12.1082 8.04384 13.3808C8.04384 14.6534 9.08054 15.6851 10.3594 15.6851ZM20.7797 8.00421H11.5172C10.8788 8.00421 10.3594 8.53823 10.3594 9.1945V10.3085C10.9243 10.3085 11.4474 10.4712 11.9032 10.7357V9.54038H20.3938V16.4531H18.85V14.917H15.7625V16.4531H13.9236C14.3843 16.8538 14.7225 17.3828 14.881 17.9893H20.7797C21.4183 17.9893 21.9375 17.4553 21.9375 16.799V9.1945C21.9375 8.53823 21.4183 8.00421 20.7797 8.00421Z" fill="#3C5979"/>
</g>
<path d="M28.0312 14.1489C28.0312 6.55797 21.8471 0.404266 14.2188 0.404266C6.5904 0.404266 0.40625 6.55797 0.40625 14.1489C0.40625 21.7399 6.5904 27.8936 14.2188 27.8936C21.8471 27.8936 28.0312 21.7399 28.0312 14.1489Z" stroke="#3C5979"/>
</svg>
