<svg width="28" height="28" viewBox="0 0 28 28" fill="none" xmlns="http://www.w3.org/2000/svg">
<g clip-path="url(#clip0_332_150)">
<path d="M27 14C27 6.8203 21.1797 1 14.0001 1C6.82039 1 1 6.8203 1 14C1 21.1797 6.82039 27 14.0001 27C21.1797 27 27 21.1797 27 14Z" stroke="#3C5979"/>
<path d="M11.728 19H4.656C4.624 19 4.608 18.968 4.608 18.904C4.608 18.84 4.624 18.808 4.656 18.808C4.98667 18.808 5.232 18.7813 5.392 18.728C5.552 18.6747 5.65867 18.568 5.712 18.408C5.76533 18.248 5.792 18.0133 5.792 17.704V10.296C5.792 9.98667 5.76533 9.75733 5.712 9.608C5.65867 9.448 5.552 9.34133 5.392 9.288C5.232 9.224 4.98667 9.192 4.656 9.192C4.624 9.192 4.608 9.16 4.608 9.096C4.608 9.032 4.624 9 4.656 9H11.44C11.5467 9 11.6 9.048 11.6 9.144L11.632 11.272C11.632 11.2933 11.6053 11.3093 11.552 11.32C11.4987 11.3307 11.4613 11.32 11.44 11.288C11.2693 10.6587 10.9813 10.2 10.576 9.912C10.1707 9.61333 9.63733 9.464 8.976 9.464H8.496C8.28267 9.464 8.10667 9.496 7.968 9.56C7.82933 9.61333 7.728 9.704 7.664 9.832C7.6 9.96 7.568 10.12 7.568 10.312V17.64C7.568 17.8427 7.59467 18.0133 7.648 18.152C7.70133 18.2907 7.78133 18.392 7.888 18.456C7.99467 18.52 8.13333 18.552 8.304 18.552H8.832C9.664 18.552 10.3307 18.3813 10.832 18.04C11.3333 17.6987 11.7013 17.1707 11.936 16.456C11.9467 16.424 11.9787 16.4187 12.032 16.44C12.096 16.4507 12.128 16.4667 12.128 16.488C12.0853 16.7973 12.048 17.1653 12.016 17.592C11.984 18.008 11.968 18.3973 11.968 18.76C11.968 18.92 11.888 19 11.728 19ZM10.832 15.432C10.832 14.9947 10.6667 14.6533 10.336 14.408C10.0053 14.152 9.52 14.024 8.88 14.024H6.72V13.576H8.896C9.52533 13.576 10 13.4693 10.32 13.256C10.6507 13.032 10.816 12.7333 10.816 12.36C10.816 12.328 10.8427 12.312 10.896 12.312C10.96 12.312 10.992 12.328 10.992 12.36C10.992 12.712 10.9867 12.9893 10.976 13.192C10.976 13.384 10.976 13.5867 10.976 13.8C10.976 14.0667 10.9813 14.328 10.992 14.584C11.0133 14.84 11.024 15.1227 11.024 15.432C11.024 15.4533 10.992 15.464 10.928 15.464C10.864 15.464 10.832 15.4533 10.832 15.432ZM14.8601 16.968V9.368L15.3401 9.4V16.968C15.3401 17.5333 15.4575 17.9813 15.6921 18.312C15.9268 18.6427 16.2521 18.808 16.6681 18.808C16.6895 18.808 16.7001 18.84 16.7001 18.904C16.7001 18.968 16.6895 19 16.6681 19C16.4335 19 16.1881 18.9947 15.9321 18.984C15.6868 18.9733 15.4148 18.968 15.1161 18.968C14.7961 18.968 14.4815 18.9733 14.1721 18.984C13.8735 18.9947 13.5961 19 13.3401 19C13.3081 19 13.2921 18.968 13.2921 18.904C13.2921 18.84 13.3081 18.808 13.3401 18.808C13.8095 18.808 14.1775 18.6427 14.4441 18.312C14.7215 17.9813 14.8601 17.5333 14.8601 16.968ZM23.0201 19.24C23.0201 19.272 22.9935 19.288 22.9401 19.288C22.8975 19.2987 22.8655 19.2987 22.8441 19.288L14.9561 10.312C14.5721 9.87467 14.2468 9.58133 13.9801 9.432C13.7135 9.272 13.4468 9.192 13.1801 9.192C13.1588 9.192 13.1481 9.16 13.1481 9.096C13.1481 9.032 13.1588 9 13.1801 9C13.3935 9 13.6121 9.00533 13.8361 9.016C14.0601 9.02667 14.2681 9.032 14.4601 9.032C14.8441 9.032 15.1908 9.02667 15.5001 9.016C15.8095 9.00533 16.0495 9 16.2201 9C16.3588 9 16.4601 9.064 16.5241 9.192C16.5988 9.30933 16.7641 9.52267 17.0201 9.832L22.8921 16.6L23.0201 19.24ZM23.0201 11.048V19.24L22.5561 18.76V11.048C22.5561 10.4827 22.4388 10.0347 22.2041 9.704C21.9695 9.36267 21.6441 9.192 21.2281 9.192C21.2068 9.192 21.1961 9.16 21.1961 9.096C21.1961 9.032 21.2068 9 21.2281 9C21.4628 9 21.7028 9.01067 21.9481 9.032C22.2041 9.04267 22.4815 9.048 22.7801 9.048C23.0681 9.048 23.3508 9.04267 23.6281 9.032C23.9055 9.01067 24.1615 9 24.3961 9C24.4175 9 24.4281 9.032 24.4281 9.096C24.4281 9.16 24.4175 9.192 24.3961 9.192C23.9695 9.192 23.6335 9.36267 23.3881 9.704C23.1428 10.0347 23.0201 10.4827 23.0201 11.048Z" fill="#3C5979"/>
</g>
<defs>
<clipPath id="clip0_332_150">
<rect width="28" height="28" fill="white"/>
</clipPath>
</defs>
</svg>
