<svg width="29" height="29" viewBox="0 0 29 29" fill="none" xmlns="http://www.w3.org/2000/svg">
<mask id="mask0_301_248" style="mask-type:luminance" maskUnits="userSpaceOnUse" x="0" y="0" width="29" height="29">
<path d="M28.4375 0H0V28.2979H28.4375V0Z" fill="white"/>
</mask>
<g mask="url(#mask0_301_248)">
<path d="M28.0312 14.1489C28.0312 6.55797 21.8471 0.404266 14.2188 0.404266C6.5904 0.404266 0.40625 6.55797 0.40625 14.1489C0.40625 21.7399 6.5904 27.8936 14.2188 27.8936C21.8471 27.8936 28.0312 21.7399 28.0312 14.1489Z" stroke="#3C5979"/>
<path d="M21.2239 9.45423L21.1526 9.61738C21.1265 9.67786 21.0709 9.70292 21.0213 9.67899C20.9187 9.62878 20.8249 9.55691 20.7422 9.46684C20.7022 9.42342 20.6918 9.34702 20.7179 9.28767L20.7892 9.1246C20.7292 9.03331 20.6823 8.92716 20.651 8.81194H20.5075C20.4553 8.81194 20.4102 8.76295 20.4015 8.69447C20.3841 8.55759 20.3832 8.41383 20.4015 8.27121C20.4102 8.20281 20.4553 8.1526 20.5075 8.1526H20.651C20.6823 8.03736 20.7292 7.93127 20.7892 7.84L20.7179 7.67687C20.6918 7.61755 20.7014 7.54111 20.7422 7.49776C20.8249 7.40763 20.9196 7.33577 21.0213 7.28557C21.0709 7.26161 21.1265 7.28671 21.1526 7.34717L21.2239 7.51031C21.3152 7.48863 21.4082 7.48863 21.4995 7.51031L21.5708 7.34717C21.5969 7.28671 21.6525 7.26161 21.7021 7.28557C21.8046 7.33577 21.8986 7.40763 21.9812 7.49776C22.0212 7.54111 22.0316 7.61755 22.0055 7.67687L21.9342 7.84C21.9942 7.93127 22.0412 8.03736 22.0724 8.1526H22.2159C22.2681 8.1526 22.3133 8.2016 22.322 8.27008C22.3394 8.40696 22.3402 8.55072 22.322 8.69334C22.3133 8.76182 22.2681 8.81194 22.2159 8.81194H22.0724C22.0412 8.92716 21.9942 9.03331 21.9342 9.1246L22.0055 9.28767C22.0316 9.34702 22.022 9.42342 21.9812 9.46684C21.8986 9.55691 21.8038 9.62878 21.7021 9.67899C21.6525 9.70292 21.5969 9.67786 21.5708 9.61738L21.4995 9.45423C21.4091 9.47589 21.3152 9.47589 21.2239 9.45423ZM21.1326 8.78349C21.4673 9.12112 21.849 8.62033 21.5917 8.18114C21.2569 7.84228 20.8752 8.34422 21.1326 8.78349ZM20.1302 10.5392L20.4232 10.7308C20.511 10.797 20.5493 10.9373 20.5145 11.0628C20.437 11.3389 20.2849 11.5921 20.1441 11.8135C20.0797 11.915 19.9685 11.9401 19.8806 11.8739L19.6276 11.6822C19.4885 11.8385 19.3268 11.9629 19.1503 12.0439V12.4272C19.1503 12.5596 19.0781 12.6736 18.979 12.6964C18.7652 12.7444 18.5408 12.7466 18.3192 12.6964C18.2192 12.6736 18.1452 12.5607 18.1452 12.4272V12.0439C17.9688 11.9617 17.8071 11.8385 17.668 11.6822L17.415 11.8728C17.328 11.9389 17.2158 11.9139 17.1515 11.8123C17.0107 11.591 16.862 11.3377 16.7846 11.0628C16.7498 10.9384 16.7881 10.7981 16.8759 10.7308L17.1654 10.5392C17.1316 10.3007 17.1316 10.0554 17.1654 9.81587L16.8759 9.62312C16.7881 9.55691 16.7489 9.41663 16.7846 9.29228C16.862 9.01617 17.0107 8.76295 17.1515 8.54158C17.2158 8.44003 17.3271 8.41497 17.415 8.4811L17.668 8.6728C17.8071 8.51652 17.9688 8.39217 18.1452 8.31115V7.92671C18.1452 7.79551 18.2166 7.68143 18.3157 7.65861C18.5295 7.6107 18.7548 7.60842 18.9764 7.65747C19.0764 7.68029 19.1503 7.79323 19.1503 7.92671V8.31002C19.3268 8.39217 19.4885 8.51538 19.6276 8.67167L19.8806 8.47997C19.9676 8.41383 20.0797 8.4389 20.1441 8.54045C20.2849 8.76182 20.4327 9.01504 20.5101 9.29115C20.5449 9.4155 20.511 9.55577 20.4232 9.62312L20.1302 9.81474C20.164 10.0543 20.164 10.2996 20.1302 10.5392ZM19.1077 10.7799C19.6224 9.90141 18.8582 8.8987 18.1887 9.57405C17.6741 10.4525 18.4383 11.4552 19.1077 10.7799ZM21.2239 12.8641L21.1526 13.0273C21.1265 13.0878 21.0709 13.1128 21.0213 13.0889C20.9187 13.0387 20.8249 12.9668 20.7422 12.8767C20.7022 12.8333 20.6918 12.7569 20.7179 12.6976L20.7892 12.5344C20.7292 12.4432 20.6823 12.3371 20.651 12.2218H20.5075C20.4553 12.2218 20.4102 12.1728 20.4015 12.1044C20.3841 11.9675 20.3832 11.8237 20.4015 11.6811C20.4102 11.6126 20.4553 11.5625 20.5075 11.5625H20.651C20.6823 11.4473 20.7292 11.3411 20.7892 11.2498L20.7179 11.0868C20.6918 11.0274 20.7014 10.951 20.7422 10.9076C20.8249 10.8175 20.9196 10.7457 21.0213 10.6955C21.0709 10.6715 21.1265 10.6966 21.1526 10.7571L21.2239 10.9202C21.3152 10.8985 21.4082 10.8985 21.4995 10.9202L21.5708 10.7571C21.5969 10.6966 21.6525 10.6715 21.7021 10.6955C21.8046 10.7457 21.8986 10.8175 21.9812 10.9076C22.0212 10.951 22.0316 11.0274 22.0055 11.0868L21.9342 11.2498C21.9942 11.3411 22.0412 11.4473 22.0724 11.5625H22.2159C22.2681 11.5625 22.3133 11.6115 22.322 11.68C22.3394 11.8169 22.3402 11.9606 22.322 12.1032C22.3133 12.1716 22.2681 12.2218 22.2159 12.2218H22.0724C22.0412 12.3371 21.9942 12.4432 21.9342 12.5344L22.0055 12.6976C22.0316 12.7569 22.022 12.8333 21.9812 12.8767C21.8986 12.9668 21.8038 13.0387 21.7021 13.0889C21.6525 13.1128 21.5969 13.0878 21.5708 13.0273L21.4995 12.8641C21.4091 12.8858 21.3152 12.8858 21.2239 12.8641ZM21.1326 12.1922C21.4673 12.5299 21.849 12.0291 21.5917 11.5898C21.2569 11.2522 20.8752 11.753 21.1326 12.1922Z" fill="#3C5979"/>
<path d="M14.8001 8.48953C15.4646 8.48953 16.0033 7.67503 16.0033 6.6703C16.0033 5.66555 15.4646 4.85107 14.8001 4.85107C14.1356 4.85107 13.597 5.66555 13.597 6.6703C13.597 7.67503 14.1356 8.48953 14.8001 8.48953ZM10.832 16.8833L10.4611 18.1917H8.78442C8.34152 18.1917 7.98242 18.7347 7.98242 19.4044C7.98242 20.0741 8.34152 20.6173 8.78442 20.6173H10.7257C11.2083 20.6173 11.6427 20.1837 11.8314 19.5147L12.0517 18.737L11.7843 18.4982C11.3502 18.1106 11.0308 17.5367 10.832 16.8833ZM17.6074 13.3404H16.5038L15.8506 11.3222C15.5373 10.3538 14.962 9.64587 14.302 9.39151L12.5204 8.59035C11.8111 8.3326 11.0724 8.5695 10.4942 9.23991L9.49982 10.3925C9.14822 10.7999 9.08152 11.561 9.35152 12.0927C9.62142 12.6244 10.1244 12.7241 10.4759 12.3171L11.4707 11.1645C11.663 10.9413 11.9079 10.8613 12.1041 10.9318L12.4725 11.0975L11.5336 14.4095C11.2173 15.5269 11.5008 16.8355 12.1928 17.4533L14.3228 19.3548L13.6343 22.6798C13.502 23.3188 13.7374 23.9991 14.1599 24.1992C14.2399 24.2371 14.3206 24.2553 14.4 24.2553C14.7412 24.2553 15.0575 23.9229 15.1651 23.4045L15.9581 19.5742C16.1062 18.787 15.8857 17.9415 15.4157 17.5128L13.8807 16.1431L14.6655 13.1763L15.1735 14.7465C15.3741 15.3658 15.7982 15.7656 16.2542 15.7656H17.6074C18.0503 15.7656 18.4095 15.2225 18.4095 14.5528C18.4095 13.8831 18.0503 13.3404 17.6074 13.3404Z" fill="#3C5979"/>
</g>
</svg>
