<svg width="28" height="28" viewBox="0 0 28 28" fill="none" xmlns="http://www.w3.org/2000/svg">
<g clip-path="url(#clip0_321_146)">
<path d="M23.5 19H21V8.54529C21 7.69341 20.3272 6.99997 19.5 6.99997H16V8.99998H19V21H23.5C23.7763 21 24 20.7762 24 20.5V19.5C24 19.2237 23.7763 19 23.5 19ZM13.7575 5.03153L7.7575 6.58591C7.31219 6.70122 7 7.1156 7 7.59122V19H4.5C4.22375 19 4 19.2237 4 19.5V20.5C4 20.7762 4.22375 21 4.5 21H15V6.03685C15 5.36247 14.3887 4.86778 13.7575 5.03153ZM12.25 14C11.8359 14 11.5 13.5522 11.5 13C11.5 12.4478 11.8359 12 12.25 12C12.6641 12 13 12.4478 13 13C13 13.5522 12.6641 14 12.25 14Z" fill="#3C5979"/>
<path d="M27 14C27 6.8203 21.1797 1 14.0001 1C6.82039 1 1 6.8203 1 14C1 21.1797 6.82039 27 14.0001 27C21.1797 27 27 21.1797 27 14Z" stroke="#3C5979"/>
</g>
<defs>
<clipPath id="clip0_321_146">
<rect width="28" height="28" fill="white"/>
</clipPath>
</defs>
</svg>
