<svg width="28" height="28" viewBox="0 0 28 28" fill="none" xmlns="http://www.w3.org/2000/svg">
<g clip-path="url(#clip0_332_146)">
<path d="M27 14C27 6.8203 21.1797 1 14.0001 1C6.82039 1 1 6.8203 1 14C1 21.1797 6.82039 27 14.0001 27C21.1797 27 27 21.1797 27 14Z" stroke="#3C5979"/>
<path d="M7.456 17.64C7.456 17.96 7.488 18.2053 7.552 18.376C7.62667 18.536 7.776 18.648 8 18.712C8.224 18.776 8.55467 18.808 8.992 18.808C9.024 18.808 9.04 18.84 9.04 18.904C9.04 18.968 9.024 19 8.992 19C8.65067 19 8.27733 18.9947 7.872 18.984C7.47733 18.9733 7.04533 18.968 6.576 18.968C6.192 18.968 5.824 18.9733 5.472 18.984C5.13067 18.9947 4.82133 19 4.544 19C4.512 19 4.496 18.968 4.496 18.904C4.496 18.84 4.512 18.808 4.544 18.808C4.87467 18.808 5.12 18.7813 5.28 18.728C5.44 18.6747 5.54667 18.568 5.6 18.408C5.65333 18.248 5.68 18.0133 5.68 17.704V10.296C5.68 9.98667 5.65333 9.75733 5.6 9.608C5.54667 9.448 5.44 9.34133 5.28 9.288C5.12 9.224 4.87467 9.192 4.544 9.192C4.512 9.192 4.496 9.16 4.496 9.096C4.496 9.032 4.512 9 4.544 9C4.82133 9 5.13067 9.01067 5.472 9.032C5.81333 9.04267 6.176 9.048 6.56 9.048C6.816 9.048 7.152 9.032 7.568 9C7.984 8.968 8.37333 8.952 8.736 8.952C9.408 8.952 10 9.04267 10.512 9.224C11.0347 9.39467 11.4507 9.672 11.76 10.056C12.0693 10.44 12.2347 10.9467 12.256 11.576C12.2773 12.12 12.1867 12.5947 11.984 13C11.792 13.4053 11.52 13.7413 11.168 14.008C10.8267 14.2747 10.4427 14.4773 10.016 14.616C9.6 14.744 9.184 14.808 8.768 14.808C8.66133 14.808 8.53867 14.8027 8.4 14.792C8.272 14.7813 8.144 14.76 8.016 14.728C7.984 14.7173 7.97333 14.68 7.984 14.616C7.99467 14.5413 8.02133 14.5093 8.064 14.52C8.14933 14.5413 8.24533 14.5573 8.352 14.568C8.45867 14.5787 8.544 14.584 8.608 14.584C8.91733 14.584 9.2 14.488 9.456 14.296C9.712 14.104 9.92 13.8107 10.08 13.416C10.24 13.0213 10.32 12.5307 10.32 11.944C10.32 11.3787 10.24 10.904 10.08 10.52C9.92 10.1253 9.68533 9.82667 9.376 9.624C9.06667 9.41067 8.68267 9.304 8.224 9.304C8.032 9.304 7.87733 9.33067 7.76 9.384C7.65333 9.43733 7.57333 9.53867 7.52 9.688C7.47733 9.83733 7.456 10.0507 7.456 10.328V17.64ZM16.3958 9.368C15.7451 9.368 15.1904 9.58667 14.7318 10.024C14.2838 10.4507 13.9264 11.0587 13.6598 11.848C13.6491 11.88 13.6171 11.896 13.5638 11.896C13.5104 11.8853 13.4838 11.864 13.4838 11.832C13.5051 11.6827 13.5264 11.4747 13.5478 11.208C13.5691 10.9307 13.5904 10.632 13.6118 10.312C13.6438 9.992 13.6651 9.68267 13.6758 9.384C13.6971 9.08533 13.7078 8.84 13.7078 8.648C13.7078 8.59467 13.7344 8.568 13.7878 8.568C13.8518 8.568 13.8838 8.59467 13.8838 8.648C13.8838 8.75467 13.9371 8.83467 14.0438 8.888C14.1611 8.93067 14.2891 8.96267 14.4278 8.984C14.5771 8.99467 14.6998 9 14.7958 9C15.7131 9.032 16.7851 9.048 18.0118 9.048C18.7584 9.048 19.3558 9.04267 19.8038 9.032C20.2518 9.01067 20.6838 9 21.0998 9C21.4838 9 21.7718 8.97867 21.9638 8.936C22.1664 8.88267 22.2944 8.77067 22.3478 8.6C22.3584 8.55733 22.3904 8.536 22.4438 8.536C22.5078 8.536 22.5398 8.55733 22.5398 8.6C22.5184 8.77067 22.4971 9.01067 22.4758 9.32C22.4651 9.61867 22.4491 9.93867 22.4278 10.28C22.4171 10.6107 22.4064 10.92 22.3958 11.208C22.3851 11.4853 22.3798 11.6933 22.3798 11.832C22.3798 11.864 22.3531 11.88 22.2998 11.88C22.2464 11.88 22.2144 11.864 22.2038 11.832C22.0438 10.9893 21.7398 10.3707 21.2917 9.976C20.8544 9.57067 20.3211 9.368 19.6918 9.368C19.4784 9.368 19.3131 9.4 19.1958 9.464C19.0891 9.51733 19.0144 9.61333 18.9718 9.752C18.9398 9.89067 18.9238 10.0827 18.9238 10.328V17.704C18.9238 18.0133 18.9558 18.248 19.0198 18.408C19.0838 18.568 19.2064 18.6747 19.3878 18.728C19.5798 18.7813 19.8678 18.808 20.2518 18.808C20.2838 18.808 20.2998 18.84 20.2998 18.904C20.2998 18.968 20.2838 19 20.2518 19C19.9531 19 19.6171 18.9947 19.2438 18.984C18.8704 18.9733 18.4598 18.968 18.0118 18.968C17.5851 18.968 17.1851 18.9733 16.8118 18.984C16.4384 18.9947 16.0971 19 15.7878 19C15.7558 19 15.7398 18.968 15.7398 18.904C15.7398 18.84 15.7558 18.808 15.7878 18.808C16.1611 18.808 16.4438 18.7813 16.6358 18.728C16.8278 18.6747 16.9558 18.568 17.0198 18.408C17.0944 18.248 17.1318 18.0133 17.1318 17.704V10.296C17.1318 10.0613 17.1104 9.88 17.0677 9.752C17.0358 9.61333 16.9664 9.51733 16.8598 9.464C16.7531 9.4 16.5984 9.368 16.3958 9.368Z" fill="#3C5979"/>
</g>
<defs>
<clipPath id="clip0_332_146">
<rect width="28" height="28" fill="white"/>
</clipPath>
</defs>
</svg>
